<?xml version="1.0" standalone="no"?>
<!DOCTYPE svg PUBLIC "-//W3C//DTD SVG 1.1//EN" "http://www.w3.org/Graphics/SVG/1.1/DTD/svg11.dtd">
<svg width="150mm" height="50mm" viewBox="0 -50 150 50" xmlns="http://www.w3.org/2000/svg" version="1.1">
<title>OpenSCAD Model</title>
<path d="
M 150,-50 L 0,-50 L 0,-0 L 150,-0 z
M 4.86276,-43.6067 L 4.72687,-43.6269 L 4.5936,-43.6603 L 4.46423,-43.7066 L 4.34004,-43.7653 L 4.2222,-43.8359
 L 4.11185,-43.9178 L 4.01004,-44.01 L 3.91777,-44.1118 L 3.83594,-44.2222 L 3.7653,-44.34 L 3.70656,-44.4642
 L 3.66028,-44.5936 L 3.62689,-44.7269 L 3.60674,-44.8628 L 3.59999,-45 L 3.60674,-45.1372 L 3.62689,-45.2731
 L 3.66028,-45.4064 L 3.70656,-45.5358 L 3.7653,-45.6599 L 3.83594,-45.7778 L 3.91777,-45.8881 L 4.01004,-45.9899
 L 4.11185,-46.0822 L 4.2222,-46.164 L 4.34004,-46.2347 L 4.46423,-46.2934 L 4.5936,-46.3397 L 4.72687,-46.3731
 L 4.86276,-46.3932 L 5,-46.4 L 5.13722,-46.3932 L 5.27312,-46.3731 L 5.40639,-46.3397 L 5.53575,-46.2934
 L 5.65994,-46.2347 L 5.77779,-46.164 L 5.88814,-46.0822 L 5.98994,-45.9899 L 6.08221,-45.8881 L 6.16405,-45.7778
 L 6.23468,-45.6599 L 6.29343,-45.5358 L 6.33971,-45.4064 L 6.37309,-45.2731 L 6.39325,-45.1372 L 6.39999,-45
 L 6.39325,-44.8628 L 6.37309,-44.7269 L 6.33971,-44.5936 L 6.29343,-44.4642 L 6.23468,-44.34 L 6.16405,-44.2222
 L 6.08221,-44.1118 L 5.98994,-44.01 L 5.88814,-43.9178 L 5.77779,-43.8359 L 5.65994,-43.7653 L 5.53575,-43.7066
 L 5.40639,-43.6603 L 5.27312,-43.6269 L 5.13722,-43.6067 L 5,-43.6 z
M 44.8628,-43.6067 L 44.7269,-43.6269 L 44.5936,-43.6603 L 44.4642,-43.7066 L 44.34,-43.7653 L 44.2222,-43.8359
 L 44.1118,-43.9178 L 44.01,-44.01 L 43.9178,-44.1118 L 43.8359,-44.2222 L 43.7653,-44.34 L 43.7066,-44.4642
 L 43.6603,-44.5936 L 43.6269,-44.7269 L 43.6067,-44.8628 L 43.6,-45 L 43.6067,-45.1372 L 43.6269,-45.2731
 L 43.6603,-45.4064 L 43.7066,-45.5358 L 43.7653,-45.6599 L 43.8359,-45.7778 L 43.9178,-45.8881 L 44.01,-45.9899
 L 44.1118,-46.0822 L 44.2222,-46.164 L 44.34,-46.2347 L 44.4642,-46.2934 L 44.5936,-46.3397 L 44.7269,-46.3731
 L 44.8628,-46.3932 L 45,-46.4 L 45.1372,-46.3932 L 45.2731,-46.3731 L 45.4064,-46.3397 L 45.5358,-46.2934
 L 45.6599,-46.2347 L 45.7778,-46.164 L 45.8881,-46.0822 L 45.9899,-45.9899 L 46.0822,-45.8881 L 46.164,-45.7778
 L 46.2347,-45.6599 L 46.2934,-45.5358 L 46.3397,-45.4064 L 46.3731,-45.2731 L 46.3932,-45.1372 L 46.4,-45
 L 46.3932,-44.8628 L 46.3731,-44.7269 L 46.3397,-44.5936 L 46.2934,-44.4642 L 46.2347,-44.34 L 46.164,-44.2222
 L 46.0822,-44.1118 L 45.9899,-44.01 L 45.8881,-43.9178 L 45.7778,-43.8359 L 45.6599,-43.7653 L 45.5358,-43.7066
 L 45.4064,-43.6603 L 45.2731,-43.6269 L 45.1372,-43.6067 L 45,-43.6 z
M 54.8628,-43.6067 L 54.7269,-43.6269 L 54.5936,-43.6603 L 54.4642,-43.7066 L 54.34,-43.7653 L 54.2222,-43.8359
 L 54.1118,-43.9178 L 54.01,-44.01 L 53.9178,-44.1118 L 53.8359,-44.2222 L 53.7653,-44.34 L 53.7066,-44.4642
 L 53.6603,-44.5936 L 53.6269,-44.7269 L 53.6067,-44.8628 L 53.6,-45 L 53.6067,-45.1372 L 53.6269,-45.2731
 L 53.6603,-45.4064 L 53.7066,-45.5358 L 53.7653,-45.6599 L 53.8359,-45.7778 L 53.9178,-45.8881 L 54.01,-45.9899
 L 54.1118,-46.0822 L 54.2222,-46.164 L 54.34,-46.2347 L 54.4642,-46.2934 L 54.5936,-46.3397 L 54.7269,-46.3731
 L 54.8628,-46.3932 L 55,-46.4 L 55.1372,-46.3932 L 55.2731,-46.3731 L 55.4064,-46.3397 L 55.5358,-46.2934
 L 55.6599,-46.2347 L 55.7778,-46.164 L 55.8881,-46.0822 L 55.9899,-45.9899 L 56.0822,-45.8881 L 56.164,-45.7778
 L 56.2347,-45.6599 L 56.2934,-45.5358 L 56.3397,-45.4064 L 56.3731,-45.2731 L 56.3932,-45.1372 L 56.4,-45
 L 56.3932,-44.8628 L 56.3731,-44.7269 L 56.3397,-44.5936 L 56.2934,-44.4642 L 56.2347,-44.34 L 56.164,-44.2222
 L 56.0822,-44.1118 L 55.9899,-44.01 L 55.8881,-43.9178 L 55.7778,-43.8359 L 55.6599,-43.7653 L 55.5358,-43.7066
 L 55.4064,-43.6603 L 55.2731,-43.6269 L 55.1372,-43.6067 L 55,-43.6 z
M 94.8628,-43.6067 L 94.7269,-43.6269 L 94.5936,-43.6603 L 94.4642,-43.7066 L 94.34,-43.7653 L 94.2222,-43.8359
 L 94.1118,-43.9178 L 94.01,-44.01 L 93.9178,-44.1118 L 93.8359,-44.2222 L 93.7653,-44.34 L 93.7066,-44.4642
 L 93.6603,-44.5936 L 93.6269,-44.7269 L 93.6067,-44.8628 L 93.6,-45 L 93.6067,-45.1372 L 93.6269,-45.2731
 L 93.6603,-45.4064 L 93.7066,-45.5358 L 93.7653,-45.6599 L 93.8359,-45.7778 L 93.9178,-45.8881 L 94.01,-45.9899
 L 94.1118,-46.0822 L 94.2222,-46.164 L 94.34,-46.2347 L 94.4642,-46.2934 L 94.5936,-46.3397 L 94.7269,-46.3731
 L 94.8628,-46.3932 L 95,-46.4 L 95.1372,-46.3932 L 95.2731,-46.3731 L 95.4064,-46.3397 L 95.5358,-46.2934
 L 95.6599,-46.2347 L 95.7778,-46.164 L 95.8881,-46.0822 L 95.9899,-45.9899 L 96.0822,-45.8881 L 96.164,-45.7778
 L 96.2347,-45.6599 L 96.2934,-45.5358 L 96.3397,-45.4064 L 96.3731,-45.2731 L 96.3932,-45.1372 L 96.4,-45
 L 96.3932,-44.8628 L 96.3731,-44.7269 L 96.3397,-44.5936 L 96.2934,-44.4642 L 96.2347,-44.34 L 96.164,-44.2222
 L 96.0822,-44.1118 L 95.9899,-44.01 L 95.8881,-43.9178 L 95.7778,-43.8359 L 95.6599,-43.7653 L 95.5358,-43.7066
 L 95.4064,-43.6603 L 95.2731,-43.6269 L 95.1372,-43.6067 L 95,-43.6 z
M 104.863,-43.6067 L 104.727,-43.6269 L 104.594,-43.6603 L 104.464,-43.7066 L 104.34,-43.7653 L 104.222,-43.8359
 L 104.112,-43.9178 L 104.01,-44.01 L 103.918,-44.1118 L 103.836,-44.2222 L 103.765,-44.34 L 103.707,-44.4642
 L 103.66,-44.5936 L 103.627,-44.7269 L 103.607,-44.8628 L 103.6,-45 L 103.607,-45.1372 L 103.627,-45.2731
 L 103.66,-45.4064 L 103.707,-45.5358 L 103.765,-45.6599 L 103.836,-45.7778 L 103.918,-45.8881 L 104.01,-45.9899
 L 104.112,-46.0822 L 104.222,-46.164 L 104.34,-46.2347 L 104.464,-46.2934 L 104.594,-46.3397 L 104.727,-46.3731
 L 104.863,-46.3932 L 105,-46.4 L 105.137,-46.3932 L 105.273,-46.3731 L 105.406,-46.3397 L 105.536,-46.2934
 L 105.66,-46.2347 L 105.778,-46.164 L 105.888,-46.0822 L 105.99,-45.9899 L 106.082,-45.8881 L 106.164,-45.7778
 L 106.235,-45.6599 L 106.293,-45.5358 L 106.34,-45.4064 L 106.373,-45.2731 L 106.393,-45.1372 L 106.4,-45
 L 106.393,-44.8628 L 106.373,-44.7269 L 106.34,-44.5936 L 106.293,-44.4642 L 106.235,-44.34 L 106.164,-44.2222
 L 106.082,-44.1118 L 105.99,-44.01 L 105.888,-43.9178 L 105.778,-43.8359 L 105.66,-43.7653 L 105.536,-43.7066
 L 105.406,-43.6603 L 105.273,-43.6269 L 105.137,-43.6067 L 105,-43.6 z
M 144.863,-43.6067 L 144.727,-43.6269 L 144.594,-43.6603 L 144.464,-43.7066 L 144.34,-43.7653 L 144.222,-43.8359
 L 144.112,-43.9178 L 144.01,-44.01 L 143.918,-44.1118 L 143.836,-44.2222 L 143.765,-44.34 L 143.707,-44.4642
 L 143.66,-44.5936 L 143.627,-44.7269 L 143.607,-44.8628 L 143.6,-45 L 143.607,-45.1372 L 143.627,-45.2731
 L 143.66,-45.4064 L 143.707,-45.5358 L 143.765,-45.6599 L 143.836,-45.7778 L 143.918,-45.8881 L 144.01,-45.9899
 L 144.112,-46.0822 L 144.222,-46.164 L 144.34,-46.2347 L 144.464,-46.2934 L 144.594,-46.3397 L 144.727,-46.3731
 L 144.863,-46.3932 L 145,-46.4 L 145.137,-46.3932 L 145.273,-46.3731 L 145.406,-46.3397 L 145.536,-46.2934
 L 145.66,-46.2347 L 145.778,-46.164 L 145.888,-46.0822 L 145.99,-45.9899 L 146.082,-45.8881 L 146.164,-45.7778
 L 146.235,-45.6599 L 146.293,-45.5358 L 146.34,-45.4064 L 146.373,-45.2731 L 146.393,-45.1372 L 146.4,-45
 L 146.393,-44.8628 L 146.373,-44.7269 L 146.34,-44.5936 L 146.293,-44.4642 L 146.235,-44.34 L 146.164,-44.2222
 L 146.082,-44.1118 L 145.99,-44.01 L 145.888,-43.9178 L 145.778,-43.8359 L 145.66,-43.7653 L 145.536,-43.7066
 L 145.406,-43.6603 L 145.273,-43.6269 L 145.137,-43.6067 L 145,-43.6 z
M 44.8628,-3.60674 L 44.7269,-3.62689 L 44.5936,-3.66028 L 44.4642,-3.70656 L 44.34,-3.7653 L 44.2222,-3.83594
 L 44.1118,-3.91777 L 44.01,-4.01004 L 43.9178,-4.11185 L 43.8359,-4.2222 L 43.7653,-4.34004 L 43.7066,-4.46423
 L 43.6603,-4.5936 L 43.6269,-4.72687 L 43.6067,-4.86276 L 43.6,-5 L 43.6067,-5.13722 L 43.6269,-5.27312
 L 43.6603,-5.40639 L 43.7066,-5.53575 L 43.7653,-5.65994 L 43.8359,-5.77779 L 43.9178,-5.88814 L 44.01,-5.98994
 L 44.1118,-6.08221 L 44.2222,-6.16405 L 44.34,-6.23468 L 44.4642,-6.29343 L 44.5936,-6.33971 L 44.7269,-6.37309
 L 44.8628,-6.39325 L 45,-6.39999 L 45.1372,-6.39325 L 45.2731,-6.37309 L 45.4064,-6.33971 L 45.5358,-6.29343
 L 45.6599,-6.23468 L 45.7778,-6.16405 L 45.8881,-6.08221 L 45.9899,-5.98994 L 46.0822,-5.88814 L 46.164,-5.77779
 L 46.2347,-5.65994 L 46.2934,-5.53575 L 46.3397,-5.40639 L 46.3731,-5.27312 L 46.3932,-5.13722 L 46.4,-5
 L 46.3932,-4.86276 L 46.3731,-4.72687 L 46.3397,-4.5936 L 46.2934,-4.46423 L 46.2347,-4.34004 L 46.164,-4.2222
 L 46.0822,-4.11185 L 45.9899,-4.01004 L 45.8881,-3.91777 L 45.7778,-3.83594 L 45.6599,-3.7653 L 45.5358,-3.70656
 L 45.4064,-3.66028 L 45.2731,-3.62689 L 45.1372,-3.60674 L 45,-3.59999 z
M 4.86276,-3.60674 L 4.72687,-3.62689 L 4.5936,-3.66028 L 4.46423,-3.70656 L 4.34004,-3.7653 L 4.2222,-3.83594
 L 4.11185,-3.91777 L 4.01004,-4.01004 L 3.91777,-4.11185 L 3.83594,-4.2222 L 3.7653,-4.34004 L 3.70656,-4.46423
 L 3.66028,-4.5936 L 3.62689,-4.72687 L 3.60674,-4.86276 L 3.59999,-5 L 3.60674,-5.13722 L 3.62689,-5.27312
 L 3.66028,-5.40639 L 3.70656,-5.53575 L 3.7653,-5.65994 L 3.83594,-5.77779 L 3.91777,-5.88814 L 4.01004,-5.98994
 L 4.11185,-6.08221 L 4.2222,-6.16405 L 4.34004,-6.23468 L 4.46423,-6.29343 L 4.5936,-6.33971 L 4.72687,-6.37309
 L 4.86276,-6.39325 L 5,-6.39999 L 5.13722,-6.39325 L 5.27312,-6.37309 L 5.40639,-6.33971 L 5.53575,-6.29343
 L 5.65994,-6.23468 L 5.77779,-6.16405 L 5.88814,-6.08221 L 5.98994,-5.98994 L 6.08221,-5.88814 L 6.16405,-5.77779
 L 6.23468,-5.65994 L 6.29343,-5.53575 L 6.33971,-5.40639 L 6.37309,-5.27312 L 6.39325,-5.13722 L 6.39999,-5
 L 6.39325,-4.86276 L 6.37309,-4.72687 L 6.33971,-4.5936 L 6.29343,-4.46423 L 6.23468,-4.34004 L 6.16405,-4.2222
 L 6.08221,-4.11185 L 5.98994,-4.01004 L 5.88814,-3.91777 L 5.77779,-3.83594 L 5.65994,-3.7653 L 5.53575,-3.70656
 L 5.40639,-3.66028 L 5.27312,-3.62689 L 5.13722,-3.60674 L 5,-3.59999 z
M 94.8628,-3.60674 L 94.7269,-3.62689 L 94.5936,-3.66028 L 94.4642,-3.70656 L 94.34,-3.7653 L 94.2222,-3.83594
 L 94.1118,-3.91777 L 94.01,-4.01004 L 93.9178,-4.11185 L 93.8359,-4.2222 L 93.7653,-4.34004 L 93.7066,-4.46423
 L 93.6603,-4.5936 L 93.6269,-4.72687 L 93.6067,-4.86276 L 93.6,-5 L 93.6067,-5.13722 L 93.6269,-5.27312
 L 93.6603,-5.40639 L 93.7066,-5.53575 L 93.7653,-5.65994 L 93.8359,-5.77779 L 93.9178,-5.88814 L 94.01,-5.98994
 L 94.1118,-6.08221 L 94.2222,-6.16405 L 94.34,-6.23468 L 94.4642,-6.29343 L 94.5936,-6.33971 L 94.7269,-6.37309
 L 94.8628,-6.39325 L 95,-6.39999 L 95.1372,-6.39325 L 95.2731,-6.37309 L 95.4064,-6.33971 L 95.5358,-6.29343
 L 95.6599,-6.23468 L 95.7778,-6.16405 L 95.8881,-6.08221 L 95.9899,-5.98994 L 96.0822,-5.88814 L 96.164,-5.77779
 L 96.2347,-5.65994 L 96.2934,-5.53575 L 96.3397,-5.40639 L 96.3731,-5.27312 L 96.3932,-5.13722 L 96.4,-5
 L 96.3932,-4.86276 L 96.3731,-4.72687 L 96.3397,-4.5936 L 96.2934,-4.46423 L 96.2347,-4.34004 L 96.164,-4.2222
 L 96.0822,-4.11185 L 95.9899,-4.01004 L 95.8881,-3.91777 L 95.7778,-3.83594 L 95.6599,-3.7653 L 95.5358,-3.70656
 L 95.4064,-3.66028 L 95.2731,-3.62689 L 95.1372,-3.60674 L 95,-3.59999 z
M 54.8628,-3.60674 L 54.7269,-3.62689 L 54.5936,-3.66028 L 54.4642,-3.70656 L 54.34,-3.7653 L 54.2222,-3.83594
 L 54.1118,-3.91777 L 54.01,-4.01004 L 53.9178,-4.11185 L 53.8359,-4.2222 L 53.7653,-4.34004 L 53.7066,-4.46423
 L 53.6603,-4.5936 L 53.6269,-4.72687 L 53.6067,-4.86276 L 53.6,-5 L 53.6067,-5.13722 L 53.6269,-5.27312
 L 53.6603,-5.40639 L 53.7066,-5.53575 L 53.7653,-5.65994 L 53.8359,-5.77779 L 53.9178,-5.88814 L 54.01,-5.98994
 L 54.1118,-6.08221 L 54.2222,-6.16405 L 54.34,-6.23468 L 54.4642,-6.29343 L 54.5936,-6.33971 L 54.7269,-6.37309
 L 54.8628,-6.39325 L 55,-6.39999 L 55.1372,-6.39325 L 55.2731,-6.37309 L 55.4064,-6.33971 L 55.5358,-6.29343
 L 55.6599,-6.23468 L 55.7778,-6.16405 L 55.8881,-6.08221 L 55.9899,-5.98994 L 56.0822,-5.88814 L 56.164,-5.77779
 L 56.2347,-5.65994 L 56.2934,-5.53575 L 56.3397,-5.40639 L 56.3731,-5.27312 L 56.3932,-5.13722 L 56.4,-5
 L 56.3932,-4.86276 L 56.3731,-4.72687 L 56.3397,-4.5936 L 56.2934,-4.46423 L 56.2347,-4.34004 L 56.164,-4.2222
 L 56.0822,-4.11185 L 55.9899,-4.01004 L 55.8881,-3.91777 L 55.7778,-3.83594 L 55.6599,-3.7653 L 55.5358,-3.70656
 L 55.4064,-3.66028 L 55.2731,-3.62689 L 55.1372,-3.60674 L 55,-3.59999 z
M 144.863,-3.60674 L 144.727,-3.62689 L 144.594,-3.66028 L 144.464,-3.70656 L 144.34,-3.7653 L 144.222,-3.83594
 L 144.112,-3.91777 L 144.01,-4.01004 L 143.918,-4.11185 L 143.836,-4.2222 L 143.765,-4.34004 L 143.707,-4.46423
 L 143.66,-4.5936 L 143.627,-4.72687 L 143.607,-4.86276 L 143.6,-5 L 143.607,-5.13722 L 143.627,-5.27312
 L 143.66,-5.40639 L 143.707,-5.53575 L 143.765,-5.65994 L 143.836,-5.77779 L 143.918,-5.88814 L 144.01,-5.98994
 L 144.112,-6.08221 L 144.222,-6.16405 L 144.34,-6.23468 L 144.464,-6.29343 L 144.594,-6.33971 L 144.727,-6.37309
 L 144.863,-6.39325 L 145,-6.39999 L 145.137,-6.39325 L 145.273,-6.37309 L 145.406,-6.33971 L 145.536,-6.29343
 L 145.66,-6.23468 L 145.778,-6.16405 L 145.888,-6.08221 L 145.99,-5.98994 L 146.082,-5.88814 L 146.164,-5.77779
 L 146.235,-5.65994 L 146.293,-5.53575 L 146.34,-5.40639 L 146.373,-5.27312 L 146.393,-5.13722 L 146.4,-5
 L 146.393,-4.86276 L 146.373,-4.72687 L 146.34,-4.5936 L 146.293,-4.46423 L 146.235,-4.34004 L 146.164,-4.2222
 L 146.082,-4.11185 L 145.99,-4.01004 L 145.888,-3.91777 L 145.778,-3.83594 L 145.66,-3.7653 L 145.536,-3.70656
 L 145.406,-3.66028 L 145.273,-3.62689 L 145.137,-3.60674 L 145,-3.59999 z
M 104.863,-3.60674 L 104.727,-3.62689 L 104.594,-3.66028 L 104.464,-3.70656 L 104.34,-3.7653 L 104.222,-3.83594
 L 104.112,-3.91777 L 104.01,-4.01004 L 103.918,-4.11185 L 103.836,-4.2222 L 103.765,-4.34004 L 103.707,-4.46423
 L 103.66,-4.5936 L 103.627,-4.72687 L 103.607,-4.86276 L 103.6,-5 L 103.607,-5.13722 L 103.627,-5.27312
 L 103.66,-5.40639 L 103.707,-5.53575 L 103.765,-5.65994 L 103.836,-5.77779 L 103.918,-5.88814 L 104.01,-5.98994
 L 104.112,-6.08221 L 104.222,-6.16405 L 104.34,-6.23468 L 104.464,-6.29343 L 104.594,-6.33971 L 104.727,-6.37309
 L 104.863,-6.39325 L 105,-6.39999 L 105.137,-6.39325 L 105.273,-6.37309 L 105.406,-6.33971 L 105.536,-6.29343
 L 105.66,-6.23468 L 105.778,-6.16405 L 105.888,-6.08221 L 105.99,-5.98994 L 106.082,-5.88814 L 106.164,-5.77779
 L 106.235,-5.65994 L 106.293,-5.53575 L 106.34,-5.40639 L 106.373,-5.27312 L 106.393,-5.13722 L 106.4,-5
 L 106.393,-4.86276 L 106.373,-4.72687 L 106.34,-4.5936 L 106.293,-4.46423 L 106.235,-4.34004 L 106.164,-4.2222
 L 106.082,-4.11185 L 105.99,-4.01004 L 105.888,-3.91777 L 105.778,-3.83594 L 105.66,-3.7653 L 105.536,-3.70656
 L 105.406,-3.66028 L 105.273,-3.62689 L 105.137,-3.60674 L 105,-3.59999 z
" stroke="black" fill="lightgray" stroke-width="0.5"/>
</svg>
