<?xml version="1.0" standalone="no"?>
<!DOCTYPE svg PUBLIC "-//W3C//DTD SVG 1.1//EN" "http://www.w3.org/Graphics/SVG/1.1/DTD/svg11.dtd">
<svg width="120mm" height="80mm" viewBox="0 -80 120 80" xmlns="http://www.w3.org/2000/svg" version="1.1">
<title>OpenSCAD Model</title>
<path d="
M 120,-80 L 0,-80 L 0,-0 L 120,-0 z
M 12.5833,-19.25 L 12.5833,-60.75 L 54.0833,-60.75 L 54.0833,-19.25 z
M 53.3333,-60 L 13.3333,-60 L 13.3333,-20 L 53.3333,-20 z
M 18.1961,-53.6067 L 18.0602,-53.6269 L 17.9269,-53.6603 L 17.7976,-53.7066 L 17.6734,-53.7653 L 17.5555,-53.8359
 L 17.4452,-53.9178 L 17.3434,-54.01 L 17.2511,-54.1118 L 17.1693,-54.2222 L 17.0986,-54.34 L 17.0399,-54.4642
 L 16.9936,-54.5936 L 16.9602,-54.7269 L 16.9401,-54.8628 L 16.9333,-55 L 16.9401,-55.1372 L 16.9602,-55.2731
 L 16.9936,-55.4064 L 17.0399,-55.5358 L 17.0986,-55.6599 L 17.1693,-55.7778 L 17.2511,-55.8881 L 17.3434,-55.9899
 L 17.4452,-56.0822 L 17.5555,-56.164 L 17.6734,-56.2347 L 17.7976,-56.2934 L 17.9269,-56.3397 L 18.0602,-56.3731
 L 18.1961,-56.3932 L 18.3333,-56.4 L 18.4706,-56.3932 L 18.6064,-56.3731 L 18.7397,-56.3397 L 18.8691,-56.2934
 L 18.9933,-56.2347 L 19.1111,-56.164 L 19.2215,-56.0822 L 19.3233,-55.9899 L 19.4155,-55.8881 L 19.4974,-55.7778
 L 19.568,-55.6599 L 19.6268,-55.5358 L 19.673,-55.4064 L 19.7064,-55.2731 L 19.7266,-55.1372 L 19.7333,-55
 L 19.7266,-54.8628 L 19.7064,-54.7269 L 19.673,-54.5936 L 19.6268,-54.4642 L 19.568,-54.34 L 19.4974,-54.2222
 L 19.4155,-54.1118 L 19.3233,-54.01 L 19.2215,-53.9178 L 19.1111,-53.8359 L 18.9933,-53.7653 L 18.8691,-53.7066
 L 18.7397,-53.6603 L 18.6064,-53.6269 L 18.4706,-53.6067 L 18.3333,-53.6 z
M 48.1961,-53.6067 L 48.0602,-53.6269 L 47.9269,-53.6603 L 47.7976,-53.7066 L 47.6734,-53.7653 L 47.5555,-53.8359
 L 47.4452,-53.9178 L 47.3434,-54.01 L 47.2511,-54.1118 L 47.1693,-54.2222 L 47.0986,-54.34 L 47.0399,-54.4642
 L 46.9936,-54.5936 L 46.9602,-54.7269 L 46.9401,-54.8628 L 46.9333,-55 L 46.9401,-55.1372 L 46.9602,-55.2731
 L 46.9936,-55.4064 L 47.0399,-55.5358 L 47.0986,-55.6599 L 47.1693,-55.7778 L 47.2511,-55.8881 L 47.3434,-55.9899
 L 47.4452,-56.0822 L 47.5555,-56.164 L 47.6734,-56.2347 L 47.7976,-56.2934 L 47.9269,-56.3397 L 48.0602,-56.3731
 L 48.1961,-56.3932 L 48.3333,-56.4 L 48.4706,-56.3932 L 48.6064,-56.3731 L 48.7397,-56.3397 L 48.8691,-56.2934
 L 48.9933,-56.2347 L 49.1111,-56.164 L 49.2215,-56.0822 L 49.3233,-55.9899 L 49.4155,-55.8881 L 49.4974,-55.7778
 L 49.568,-55.6599 L 49.6268,-55.5358 L 49.673,-55.4064 L 49.7064,-55.2731 L 49.7266,-55.1372 L 49.7333,-55
 L 49.7266,-54.8628 L 49.7064,-54.7269 L 49.673,-54.5936 L 49.6268,-54.4642 L 49.568,-54.34 L 49.4974,-54.2222
 L 49.4155,-54.1118 L 49.3233,-54.01 L 49.2215,-53.9178 L 49.1111,-53.8359 L 48.9933,-53.7653 L 48.8691,-53.7066
 L 48.7397,-53.6603 L 48.6064,-53.6269 L 48.4706,-53.6067 L 48.3333,-53.6 z
M 48.1961,-23.6067 L 48.0602,-23.6269 L 47.9269,-23.6603 L 47.7976,-23.7066 L 47.6734,-23.7653 L 47.5555,-23.8359
 L 47.4452,-23.9178 L 47.3434,-24.01 L 47.2511,-24.1118 L 47.1693,-24.2222 L 47.0986,-24.34 L 47.0399,-24.4642
 L 46.9936,-24.5936 L 46.9602,-24.7269 L 46.9401,-24.8628 L 46.9333,-25 L 46.9401,-25.1372 L 46.9602,-25.2731
 L 46.9936,-25.4064 L 47.0399,-25.5358 L 47.0986,-25.6599 L 47.1693,-25.7778 L 47.2511,-25.8881 L 47.3434,-25.9899
 L 47.4452,-26.0822 L 47.5555,-26.164 L 47.6734,-26.2347 L 47.7976,-26.2934 L 47.9269,-26.3397 L 48.0602,-26.3731
 L 48.1961,-26.3932 L 48.3333,-26.4 L 48.4706,-26.3932 L 48.6064,-26.3731 L 48.7397,-26.3397 L 48.8691,-26.2934
 L 48.9933,-26.2347 L 49.1111,-26.164 L 49.2215,-26.0822 L 49.3233,-25.9899 L 49.4155,-25.8881 L 49.4974,-25.7778
 L 49.568,-25.6599 L 49.6268,-25.5358 L 49.673,-25.4064 L 49.7064,-25.2731 L 49.7266,-25.1372 L 49.7333,-25
 L 49.7266,-24.8628 L 49.7064,-24.7269 L 49.673,-24.5936 L 49.6268,-24.4642 L 49.568,-24.34 L 49.4974,-24.2222
 L 49.4155,-24.1118 L 49.3233,-24.01 L 49.2215,-23.9178 L 49.1111,-23.8359 L 48.9933,-23.7653 L 48.8691,-23.7066
 L 48.7397,-23.6603 L 48.6064,-23.6269 L 48.4706,-23.6067 L 48.3333,-23.6 z
M 18.1961,-23.6067 L 18.0602,-23.6269 L 17.9269,-23.6603 L 17.7976,-23.7066 L 17.6734,-23.7653 L 17.5555,-23.8359
 L 17.4452,-23.9178 L 17.3434,-24.01 L 17.2511,-24.1118 L 17.1693,-24.2222 L 17.0986,-24.34 L 17.0399,-24.4642
 L 16.9936,-24.5936 L 16.9602,-24.7269 L 16.9401,-24.8628 L 16.9333,-25 L 16.9401,-25.1372 L 16.9602,-25.2731
 L 16.9936,-25.4064 L 17.0399,-25.5358 L 17.0986,-25.6599 L 17.1693,-25.7778 L 17.2511,-25.8881 L 17.3434,-25.9899
 L 17.4452,-26.0822 L 17.5555,-26.164 L 17.6734,-26.2347 L 17.7976,-26.2934 L 17.9269,-26.3397 L 18.0602,-26.3731
 L 18.1961,-26.3932 L 18.3333,-26.4 L 18.4706,-26.3932 L 18.6064,-26.3731 L 18.7397,-26.3397 L 18.8691,-26.2934
 L 18.9933,-26.2347 L 19.1111,-26.164 L 19.2215,-26.0822 L 19.3233,-25.9899 L 19.4155,-25.8881 L 19.4974,-25.7778
 L 19.568,-25.6599 L 19.6268,-25.5358 L 19.673,-25.4064 L 19.7064,-25.2731 L 19.7266,-25.1372 L 19.7333,-25
 L 19.7266,-24.8628 L 19.7064,-24.7269 L 19.673,-24.5936 L 19.6268,-24.4642 L 19.568,-24.34 L 19.4974,-24.2222
 L 19.4155,-24.1118 L 19.3233,-24.01 L 19.2215,-23.9178 L 19.1111,-23.8359 L 18.9933,-23.7653 L 18.8691,-23.7066
 L 18.7397,-23.6603 L 18.6064,-23.6269 L 18.4706,-23.6067 L 18.3333,-23.6 z
M 65.9167,-19.25 L 65.9167,-60.75 L 107.417,-60.75 L 107.417,-19.25 z
M 106.667,-60 L 66.6667,-60 L 66.6667,-20 L 106.667,-20 z
M 71.5294,-53.6067 L 71.3935,-53.6269 L 71.2603,-53.6603 L 71.1309,-53.7066 L 71.0067,-53.7653 L 70.8889,-53.8359
 L 70.7785,-53.9178 L 70.6767,-54.01 L 70.5844,-54.1118 L 70.5026,-54.2222 L 70.432,-54.34 L 70.3732,-54.4642
 L 70.3269,-54.5936 L 70.2935,-54.7269 L 70.2734,-54.8628 L 70.2666,-55 L 70.2734,-55.1372 L 70.2935,-55.2731
 L 70.3269,-55.4064 L 70.3732,-55.5358 L 70.432,-55.6599 L 70.5026,-55.7778 L 70.5844,-55.8881 L 70.6767,-55.9899
 L 70.7785,-56.0822 L 70.8889,-56.164 L 71.0067,-56.2347 L 71.1309,-56.2934 L 71.2603,-56.3397 L 71.3935,-56.3731
 L 71.5294,-56.3932 L 71.6667,-56.4 L 71.8039,-56.3932 L 71.9398,-56.3731 L 72.073,-56.3397 L 72.2024,-56.2934
 L 72.3266,-56.2347 L 72.4444,-56.164 L 72.5548,-56.0822 L 72.6566,-55.9899 L 72.7489,-55.8881 L 72.8307,-55.7778
 L 72.9013,-55.6599 L 72.9601,-55.5358 L 73.0064,-55.4064 L 73.0397,-55.2731 L 73.0599,-55.1372 L 73.0667,-55
 L 73.0599,-54.8628 L 73.0397,-54.7269 L 73.0064,-54.5936 L 72.9601,-54.4642 L 72.9013,-54.34 L 72.8307,-54.2222
 L 72.7489,-54.1118 L 72.6566,-54.01 L 72.5548,-53.9178 L 72.4444,-53.8359 L 72.3266,-53.7653 L 72.2024,-53.7066
 L 72.073,-53.6603 L 71.9398,-53.6269 L 71.8039,-53.6067 L 71.6667,-53.6 z
M 101.529,-53.6067 L 101.394,-53.6269 L 101.26,-53.6603 L 101.131,-53.7066 L 101.007,-53.7653 L 100.889,-53.8359
 L 100.779,-53.9178 L 100.677,-54.01 L 100.584,-54.1118 L 100.503,-54.2222 L 100.432,-54.34 L 100.373,-54.4642
 L 100.327,-54.5936 L 100.294,-54.7269 L 100.273,-54.8628 L 100.267,-55 L 100.273,-55.1372 L 100.294,-55.2731
 L 100.327,-55.4064 L 100.373,-55.5358 L 100.432,-55.6599 L 100.503,-55.7778 L 100.584,-55.8881 L 100.677,-55.9899
 L 100.779,-56.0822 L 100.889,-56.164 L 101.007,-56.2347 L 101.131,-56.2934 L 101.26,-56.3397 L 101.394,-56.3731
 L 101.529,-56.3932 L 101.667,-56.4 L 101.804,-56.3932 L 101.94,-56.3731 L 102.073,-56.3397 L 102.202,-56.2934
 L 102.327,-56.2347 L 102.444,-56.164 L 102.555,-56.0822 L 102.657,-55.9899 L 102.749,-55.8881 L 102.831,-55.7778
 L 102.901,-55.6599 L 102.96,-55.5358 L 103.006,-55.4064 L 103.04,-55.2731 L 103.06,-55.1372 L 103.067,-55
 L 103.06,-54.8628 L 103.04,-54.7269 L 103.006,-54.5936 L 102.96,-54.4642 L 102.901,-54.34 L 102.831,-54.2222
 L 102.749,-54.1118 L 102.657,-54.01 L 102.555,-53.9178 L 102.444,-53.8359 L 102.327,-53.7653 L 102.202,-53.7066
 L 102.073,-53.6603 L 101.94,-53.6269 L 101.804,-53.6067 L 101.667,-53.6 z
M 101.529,-23.6067 L 101.394,-23.6269 L 101.26,-23.6603 L 101.131,-23.7066 L 101.007,-23.7653 L 100.889,-23.8359
 L 100.779,-23.9178 L 100.677,-24.01 L 100.584,-24.1118 L 100.503,-24.2222 L 100.432,-24.34 L 100.373,-24.4642
 L 100.327,-24.5936 L 100.294,-24.7269 L 100.273,-24.8628 L 100.267,-25 L 100.273,-25.1372 L 100.294,-25.2731
 L 100.327,-25.4064 L 100.373,-25.5358 L 100.432,-25.6599 L 100.503,-25.7778 L 100.584,-25.8881 L 100.677,-25.9899
 L 100.779,-26.0822 L 100.889,-26.164 L 101.007,-26.2347 L 101.131,-26.2934 L 101.26,-26.3397 L 101.394,-26.3731
 L 101.529,-26.3932 L 101.667,-26.4 L 101.804,-26.3932 L 101.94,-26.3731 L 102.073,-26.3397 L 102.202,-26.2934
 L 102.327,-26.2347 L 102.444,-26.164 L 102.555,-26.0822 L 102.657,-25.9899 L 102.749,-25.8881 L 102.831,-25.7778
 L 102.901,-25.6599 L 102.96,-25.5358 L 103.006,-25.4064 L 103.04,-25.2731 L 103.06,-25.1372 L 103.067,-25
 L 103.06,-24.8628 L 103.04,-24.7269 L 103.006,-24.5936 L 102.96,-24.4642 L 102.901,-24.34 L 102.831,-24.2222
 L 102.749,-24.1118 L 102.657,-24.01 L 102.555,-23.9178 L 102.444,-23.8359 L 102.327,-23.7653 L 102.202,-23.7066
 L 102.073,-23.6603 L 101.94,-23.6269 L 101.804,-23.6067 L 101.667,-23.6 z
M 71.5294,-23.6067 L 71.3935,-23.6269 L 71.2603,-23.6603 L 71.1309,-23.7066 L 71.0067,-23.7653 L 70.8889,-23.8359
 L 70.7785,-23.9178 L 70.6767,-24.01 L 70.5844,-24.1118 L 70.5026,-24.2222 L 70.432,-24.34 L 70.3732,-24.4642
 L 70.3269,-24.5936 L 70.2935,-24.7269 L 70.2734,-24.8628 L 70.2666,-25 L 70.2734,-25.1372 L 70.2935,-25.2731
 L 70.3269,-25.4064 L 70.3732,-25.5358 L 70.432,-25.6599 L 70.5026,-25.7778 L 70.5844,-25.8881 L 70.6767,-25.9899
 L 70.7785,-26.0822 L 70.8889,-26.164 L 71.0067,-26.2347 L 71.1309,-26.2934 L 71.2603,-26.3397 L 71.3935,-26.3731
 L 71.5294,-26.3932 L 71.6667,-26.4 L 71.8039,-26.3932 L 71.9398,-26.3731 L 72.073,-26.3397 L 72.2024,-26.2934
 L 72.3266,-26.2347 L 72.4444,-26.164 L 72.5548,-26.0822 L 72.6566,-25.9899 L 72.7489,-25.8881 L 72.8307,-25.7778
 L 72.9013,-25.6599 L 72.9601,-25.5358 L 73.0064,-25.4064 L 73.0397,-25.2731 L 73.0599,-25.1372 L 73.0667,-25
 L 73.0599,-24.8628 L 73.0397,-24.7269 L 73.0064,-24.5936 L 72.9601,-24.4642 L 72.9013,-24.34 L 72.8307,-24.2222
 L 72.7489,-24.1118 L 72.6566,-24.01 L 72.5548,-23.9178 L 72.4444,-23.8359 L 72.3266,-23.7653 L 72.2024,-23.7066
 L 72.073,-23.6603 L 71.9398,-23.6269 L 71.8039,-23.6067 L 71.6667,-23.6 z
" stroke="black" fill="lightgray" stroke-width="0.5"/>
</svg>
