<?xml version="1.0" standalone="no"?>
<!DOCTYPE svg PUBLIC "-//W3C//DTD SVG 1.1//EN" "http://www.w3.org/Graphics/SVG/1.1/DTD/svg11.dtd">
<svg width="120mm" height="40mm" viewBox="0 -40 120 40" xmlns="http://www.w3.org/2000/svg" version="1.1">
<title>OpenSCAD Model</title>
<path d="
M 120,-40 L 0,-40 L 0,-0 L 120,-0 z
M 17.8628,-33.3567 L 17.7269,-33.3769 L 17.5936,-33.4103 L 17.4642,-33.4566 L 17.34,-33.5153 L 17.2222,-33.5859
 L 17.1118,-33.6678 L 17.01,-33.76 L 16.9178,-33.8618 L 16.8359,-33.9722 L 16.7653,-34.09 L 16.7066,-34.2142
 L 16.6603,-34.3436 L 16.6269,-34.4769 L 16.6067,-34.6128 L 16.6,-34.75 L 16.6067,-34.8872 L 16.6269,-35.0231
 L 16.6603,-35.1564 L 16.7066,-35.2858 L 16.7653,-35.4099 L 16.8359,-35.5278 L 16.9178,-35.6381 L 17.01,-35.7399
 L 17.1118,-35.8322 L 17.2222,-35.914 L 17.34,-35.9847 L 17.4642,-36.0434 L 17.5936,-36.0897 L 17.7269,-36.1231
 L 17.8628,-36.1432 L 18,-36.15 L 18.1372,-36.1432 L 18.2731,-36.1231 L 18.4064,-36.0897 L 18.5358,-36.0434
 L 18.6599,-35.9847 L 18.7778,-35.914 L 18.8881,-35.8322 L 18.9899,-35.7399 L 19.0822,-35.6381 L 19.164,-35.5278
 L 19.2347,-35.4099 L 19.2934,-35.2858 L 19.3397,-35.1564 L 19.3731,-35.0231 L 19.3932,-34.8872 L 19.4,-34.75
 L 19.3932,-34.6128 L 19.3731,-34.4769 L 19.3397,-34.3436 L 19.2934,-34.2142 L 19.2347,-34.09 L 19.164,-33.9722
 L 19.0822,-33.8618 L 18.9899,-33.76 L 18.8881,-33.6678 L 18.7778,-33.5859 L 18.6599,-33.5153 L 18.5358,-33.4566
 L 18.4064,-33.4103 L 18.2731,-33.3769 L 18.1372,-33.3567 L 18,-33.35 z
M 47.8628,-33.3567 L 47.7269,-33.3769 L 47.5936,-33.4103 L 47.4642,-33.4566 L 47.34,-33.5153 L 47.2222,-33.5859
 L 47.1118,-33.6678 L 47.01,-33.76 L 46.9178,-33.8618 L 46.8359,-33.9722 L 46.7653,-34.09 L 46.7066,-34.2142
 L 46.6603,-34.3436 L 46.6269,-34.4769 L 46.6067,-34.6128 L 46.6,-34.75 L 46.6067,-34.8872 L 46.6269,-35.0231
 L 46.6603,-35.1564 L 46.7066,-35.2858 L 46.7653,-35.4099 L 46.8359,-35.5278 L 46.9178,-35.6381 L 47.01,-35.7399
 L 47.1118,-35.8322 L 47.2222,-35.914 L 47.34,-35.9847 L 47.4642,-36.0434 L 47.5936,-36.0897 L 47.7269,-36.1231
 L 47.8628,-36.1432 L 48,-36.15 L 48.1372,-36.1432 L 48.2731,-36.1231 L 48.4064,-36.0897 L 48.5358,-36.0434
 L 48.6599,-35.9847 L 48.7778,-35.914 L 48.8881,-35.8322 L 48.9899,-35.7399 L 49.0822,-35.6381 L 49.164,-35.5278
 L 49.2347,-35.4099 L 49.2934,-35.2858 L 49.3397,-35.1564 L 49.3731,-35.0231 L 49.3932,-34.8872 L 49.4,-34.75
 L 49.3932,-34.6128 L 49.3731,-34.4769 L 49.3397,-34.3436 L 49.2934,-34.2142 L 49.2347,-34.09 L 49.164,-33.9722
 L 49.0822,-33.8618 L 48.9899,-33.76 L 48.8881,-33.6678 L 48.7778,-33.5859 L 48.6599,-33.5153 L 48.5358,-33.4566
 L 48.4064,-33.4103 L 48.2731,-33.3769 L 48.1372,-33.3567 L 48,-33.35 z
M 71.3628,-33.3567 L 71.2269,-33.3769 L 71.0936,-33.4103 L 70.9642,-33.4566 L 70.84,-33.5153 L 70.7222,-33.5859
 L 70.6118,-33.6678 L 70.51,-33.76 L 70.4178,-33.8618 L 70.3359,-33.9722 L 70.2653,-34.09 L 70.2066,-34.2142
 L 70.1603,-34.3436 L 70.1269,-34.4769 L 70.1067,-34.6128 L 70.1,-34.75 L 70.1067,-34.8872 L 70.1269,-35.0231
 L 70.1603,-35.1564 L 70.2066,-35.2858 L 70.2653,-35.4099 L 70.3359,-35.5278 L 70.4178,-35.6381 L 70.51,-35.7399
 L 70.6118,-35.8322 L 70.7222,-35.914 L 70.84,-35.9847 L 70.9642,-36.0434 L 71.0936,-36.0897 L 71.2269,-36.1231
 L 71.3628,-36.1432 L 71.5,-36.15 L 71.6372,-36.1432 L 71.7731,-36.1231 L 71.9064,-36.0897 L 72.0358,-36.0434
 L 72.1599,-35.9847 L 72.2778,-35.914 L 72.3881,-35.8322 L 72.4899,-35.7399 L 72.5822,-35.6381 L 72.664,-35.5278
 L 72.7347,-35.4099 L 72.7934,-35.2858 L 72.8397,-35.1564 L 72.8731,-35.0231 L 72.8932,-34.8872 L 72.9,-34.75
 L 72.8932,-34.6128 L 72.8731,-34.4769 L 72.8397,-34.3436 L 72.7934,-34.2142 L 72.7347,-34.09 L 72.664,-33.9722
 L 72.5822,-33.8618 L 72.4899,-33.76 L 72.3881,-33.6678 L 72.2778,-33.5859 L 72.1599,-33.5153 L 72.0358,-33.4566
 L 71.9064,-33.4103 L 71.7731,-33.3769 L 71.6372,-33.3567 L 71.5,-33.35 z
M 101.363,-33.3567 L 101.227,-33.3769 L 101.094,-33.4103 L 100.964,-33.4566 L 100.84,-33.5153 L 100.722,-33.5859
 L 100.612,-33.6678 L 100.51,-33.76 L 100.418,-33.8618 L 100.336,-33.9722 L 100.265,-34.09 L 100.207,-34.2142
 L 100.16,-34.3436 L 100.127,-34.4769 L 100.107,-34.6128 L 100.1,-34.75 L 100.107,-34.8872 L 100.127,-35.0231
 L 100.16,-35.1564 L 100.207,-35.2858 L 100.265,-35.4099 L 100.336,-35.5278 L 100.418,-35.6381 L 100.51,-35.7399
 L 100.612,-35.8322 L 100.722,-35.914 L 100.84,-35.9847 L 100.964,-36.0434 L 101.094,-36.0897 L 101.227,-36.1231
 L 101.363,-36.1432 L 101.5,-36.15 L 101.637,-36.1432 L 101.773,-36.1231 L 101.906,-36.0897 L 102.036,-36.0434
 L 102.16,-35.9847 L 102.278,-35.914 L 102.388,-35.8322 L 102.49,-35.7399 L 102.582,-35.6381 L 102.664,-35.5278
 L 102.735,-35.4099 L 102.793,-35.2858 L 102.84,-35.1564 L 102.873,-35.0231 L 102.893,-34.8872 L 102.9,-34.75
 L 102.893,-34.6128 L 102.873,-34.4769 L 102.84,-34.3436 L 102.793,-34.2142 L 102.735,-34.09 L 102.664,-33.9722
 L 102.582,-33.8618 L 102.49,-33.76 L 102.388,-33.6678 L 102.278,-33.5859 L 102.16,-33.5153 L 102.036,-33.4566
 L 101.906,-33.4103 L 101.773,-33.3769 L 101.637,-33.3567 L 101.5,-33.35 z
M 47.8628,-3.35674 L 47.7269,-3.37689 L 47.5936,-3.41028 L 47.4642,-3.45656 L 47.34,-3.5153 L 47.2222,-3.58594
 L 47.1118,-3.66777 L 47.01,-3.76004 L 46.9178,-3.86185 L 46.8359,-3.9722 L 46.7653,-4.09004 L 46.7066,-4.21423
 L 46.6603,-4.3436 L 46.6269,-4.47687 L 46.6067,-4.61276 L 46.6,-4.75 L 46.6067,-4.88722 L 46.6269,-5.02312
 L 46.6603,-5.15639 L 46.7066,-5.28575 L 46.7653,-5.40994 L 46.8359,-5.52779 L 46.9178,-5.63814 L 47.01,-5.73994
 L 47.1118,-5.83221 L 47.2222,-5.91405 L 47.34,-5.98468 L 47.4642,-6.04343 L 47.5936,-6.08971 L 47.7269,-6.12309
 L 47.8628,-6.14325 L 48,-6.14999 L 48.1372,-6.14325 L 48.2731,-6.12309 L 48.4064,-6.08971 L 48.5358,-6.04343
 L 48.6599,-5.98468 L 48.7778,-5.91405 L 48.8881,-5.83221 L 48.9899,-5.73994 L 49.0822,-5.63814 L 49.164,-5.52779
 L 49.2347,-5.40994 L 49.2934,-5.28575 L 49.3397,-5.15639 L 49.3731,-5.02312 L 49.3932,-4.88722 L 49.4,-4.75
 L 49.3932,-4.61276 L 49.3731,-4.47687 L 49.3397,-4.3436 L 49.2934,-4.21423 L 49.2347,-4.09004 L 49.164,-3.9722
 L 49.0822,-3.86185 L 48.9899,-3.76004 L 48.8881,-3.66777 L 48.7778,-3.58594 L 48.6599,-3.5153 L 48.5358,-3.45656
 L 48.4064,-3.41028 L 48.2731,-3.37689 L 48.1372,-3.35674 L 48,-3.34999 z
M 17.8628,-3.35674 L 17.7269,-3.37689 L 17.5936,-3.41028 L 17.4642,-3.45656 L 17.34,-3.5153 L 17.2222,-3.58594
 L 17.1118,-3.66777 L 17.01,-3.76004 L 16.9178,-3.86185 L 16.8359,-3.9722 L 16.7653,-4.09004 L 16.7066,-4.21423
 L 16.6603,-4.3436 L 16.6269,-4.47687 L 16.6067,-4.61276 L 16.6,-4.75 L 16.6067,-4.88722 L 16.6269,-5.02312
 L 16.6603,-5.15639 L 16.7066,-5.28575 L 16.7653,-5.40994 L 16.8359,-5.52779 L 16.9178,-5.63814 L 17.01,-5.73994
 L 17.1118,-5.83221 L 17.2222,-5.91405 L 17.34,-5.98468 L 17.4642,-6.04343 L 17.5936,-6.08971 L 17.7269,-6.12309
 L 17.8628,-6.14325 L 18,-6.14999 L 18.1372,-6.14325 L 18.2731,-6.12309 L 18.4064,-6.08971 L 18.5358,-6.04343
 L 18.6599,-5.98468 L 18.7778,-5.91405 L 18.8881,-5.83221 L 18.9899,-5.73994 L 19.0822,-5.63814 L 19.164,-5.52779
 L 19.2347,-5.40994 L 19.2934,-5.28575 L 19.3397,-5.15639 L 19.3731,-5.02312 L 19.3932,-4.88722 L 19.4,-4.75
 L 19.3932,-4.61276 L 19.3731,-4.47687 L 19.3397,-4.3436 L 19.2934,-4.21423 L 19.2347,-4.09004 L 19.164,-3.9722
 L 19.0822,-3.86185 L 18.9899,-3.76004 L 18.8881,-3.66777 L 18.7778,-3.58594 L 18.6599,-3.5153 L 18.5358,-3.45656
 L 18.4064,-3.41028 L 18.2731,-3.37689 L 18.1372,-3.35674 L 18,-3.34999 z
M 101.363,-3.35674 L 101.227,-3.37689 L 101.094,-3.41028 L 100.964,-3.45656 L 100.84,-3.5153 L 100.722,-3.58594
 L 100.612,-3.66777 L 100.51,-3.76004 L 100.418,-3.86185 L 100.336,-3.9722 L 100.265,-4.09004 L 100.207,-4.21423
 L 100.16,-4.3436 L 100.127,-4.47687 L 100.107,-4.61276 L 100.1,-4.75 L 100.107,-4.88722 L 100.127,-5.02312
 L 100.16,-5.15639 L 100.207,-5.28575 L 100.265,-5.40994 L 100.336,-5.52779 L 100.418,-5.63814 L 100.51,-5.73994
 L 100.612,-5.83221 L 100.722,-5.91405 L 100.84,-5.98468 L 100.964,-6.04343 L 101.094,-6.08971 L 101.227,-6.12309
 L 101.363,-6.14325 L 101.5,-6.14999 L 101.637,-6.14325 L 101.773,-6.12309 L 101.906,-6.08971 L 102.036,-6.04343
 L 102.16,-5.98468 L 102.278,-5.91405 L 102.388,-5.83221 L 102.49,-5.73994 L 102.582,-5.63814 L 102.664,-5.52779
 L 102.735,-5.40994 L 102.793,-5.28575 L 102.84,-5.15639 L 102.873,-5.02312 L 102.893,-4.88722 L 102.9,-4.75
 L 102.893,-4.61276 L 102.873,-4.47687 L 102.84,-4.3436 L 102.793,-4.21423 L 102.735,-4.09004 L 102.664,-3.9722
 L 102.582,-3.86185 L 102.49,-3.76004 L 102.388,-3.66777 L 102.278,-3.58594 L 102.16,-3.5153 L 102.036,-3.45656
 L 101.906,-3.41028 L 101.773,-3.37689 L 101.637,-3.35674 L 101.5,-3.34999 z
M 71.3628,-3.35674 L 71.2269,-3.37689 L 71.0936,-3.41028 L 70.9642,-3.45656 L 70.84,-3.5153 L 70.7222,-3.58594
 L 70.6118,-3.66777 L 70.51,-3.76004 L 70.4178,-3.86185 L 70.3359,-3.9722 L 70.2653,-4.09004 L 70.2066,-4.21423
 L 70.1603,-4.3436 L 70.1269,-4.47687 L 70.1067,-4.61276 L 70.1,-4.75 L 70.1067,-4.88722 L 70.1269,-5.02312
 L 70.1603,-5.15639 L 70.2066,-5.28575 L 70.2653,-5.40994 L 70.3359,-5.52779 L 70.4178,-5.63814 L 70.51,-5.73994
 L 70.6118,-5.83221 L 70.7222,-5.91405 L 70.84,-5.98468 L 70.9642,-6.04343 L 71.0936,-6.08971 L 71.2269,-6.12309
 L 71.3628,-6.14325 L 71.5,-6.14999 L 71.6372,-6.14325 L 71.7731,-6.12309 L 71.9064,-6.08971 L 72.0358,-6.04343
 L 72.1599,-5.98468 L 72.2778,-5.91405 L 72.3881,-5.83221 L 72.4899,-5.73994 L 72.5822,-5.63814 L 72.664,-5.52779
 L 72.7347,-5.40994 L 72.7934,-5.28575 L 72.8397,-5.15639 L 72.8731,-5.02312 L 72.8932,-4.88722 L 72.9,-4.75
 L 72.8932,-4.61276 L 72.8731,-4.47687 L 72.8397,-4.3436 L 72.7934,-4.21423 L 72.7347,-4.09004 L 72.664,-3.9722
 L 72.5822,-3.86185 L 72.4899,-3.76004 L 72.3881,-3.66777 L 72.2778,-3.58594 L 72.1599,-3.5153 L 72.0358,-3.45656
 L 71.9064,-3.41028 L 71.7731,-3.37689 L 71.6372,-3.35674 L 71.5,-3.34999 z
" stroke="black" fill="lightgray" stroke-width="0.5"/>
</svg>
