<?xml version="1.0" standalone="no"?>
<!DOCTYPE svg PUBLIC "-//W3C//DTD SVG 1.1//EN" "http://www.w3.org/Graphics/SVG/1.1/DTD/svg11.dtd">
<svg width="120mm" height="40mm" viewBox="0 -40 120 40" xmlns="http://www.w3.org/2000/svg" version="1.1">
<title>OpenSCAD Model</title>
<path d="
M 13,-40 L 0,-40 L 0,-0 L 13,-0 z
M 66.5,-40 L 53.5,-40 L 53.5,-0 L 66.5,-0 z
M 120,-40 L 107,-40 L 107,-0 L 120,-0 z
M 53.25,-40 L 13.25,-40 L 13.25,-0 L 53.25,-0 z
M 18.1128,-33.6067 L 17.9769,-33.6269 L 17.8436,-33.6603 L 17.7142,-33.7066 L 17.59,-33.7653 L 17.4722,-33.8359
 L 17.3618,-33.9178 L 17.26,-34.01 L 17.1678,-34.1118 L 17.0859,-34.2222 L 17.0153,-34.34 L 16.9566,-34.4642
 L 16.9103,-34.5936 L 16.8769,-34.7269 L 16.8567,-34.8628 L 16.85,-35 L 16.8567,-35.1372 L 16.8769,-35.2731
 L 16.9103,-35.4064 L 16.9566,-35.5358 L 17.0153,-35.6599 L 17.0859,-35.7778 L 17.1678,-35.8881 L 17.26,-35.9899
 L 17.3618,-36.0822 L 17.4722,-36.164 L 17.59,-36.2347 L 17.7142,-36.2934 L 17.8436,-36.3397 L 17.9769,-36.3731
 L 18.1128,-36.3932 L 18.25,-36.4 L 18.3872,-36.3932 L 18.5231,-36.3731 L 18.6564,-36.3397 L 18.7858,-36.2934
 L 18.9099,-36.2347 L 19.0278,-36.164 L 19.1381,-36.0822 L 19.2399,-35.9899 L 19.3322,-35.8881 L 19.414,-35.7778
 L 19.4847,-35.6599 L 19.5434,-35.5358 L 19.5897,-35.4064 L 19.6231,-35.2731 L 19.6432,-35.1372 L 19.65,-35
 L 19.6432,-34.8628 L 19.6231,-34.7269 L 19.5897,-34.5936 L 19.5434,-34.4642 L 19.4847,-34.34 L 19.414,-34.2222
 L 19.3322,-34.1118 L 19.2399,-34.01 L 19.1381,-33.9178 L 19.0278,-33.8359 L 18.9099,-33.7653 L 18.7858,-33.7066
 L 18.6564,-33.6603 L 18.5231,-33.6269 L 18.3872,-33.6067 L 18.25,-33.6 z
M 48.1128,-33.6067 L 47.9769,-33.6269 L 47.8436,-33.6603 L 47.7142,-33.7066 L 47.59,-33.7653 L 47.4722,-33.8359
 L 47.3618,-33.9178 L 47.26,-34.01 L 47.1678,-34.1118 L 47.0859,-34.2222 L 47.0153,-34.34 L 46.9566,-34.4642
 L 46.9103,-34.5936 L 46.8769,-34.7269 L 46.8567,-34.8628 L 46.85,-35 L 46.8567,-35.1372 L 46.8769,-35.2731
 L 46.9103,-35.4064 L 46.9566,-35.5358 L 47.0153,-35.6599 L 47.0859,-35.7778 L 47.1678,-35.8881 L 47.26,-35.9899
 L 47.3618,-36.0822 L 47.4722,-36.164 L 47.59,-36.2347 L 47.7142,-36.2934 L 47.8436,-36.3397 L 47.9769,-36.3731
 L 48.1128,-36.3932 L 48.25,-36.4 L 48.3872,-36.3932 L 48.5231,-36.3731 L 48.6564,-36.3397 L 48.7858,-36.2934
 L 48.9099,-36.2347 L 49.0278,-36.164 L 49.1381,-36.0822 L 49.2399,-35.9899 L 49.3322,-35.8881 L 49.414,-35.7778
 L 49.4847,-35.6599 L 49.5434,-35.5358 L 49.5897,-35.4064 L 49.6231,-35.2731 L 49.6432,-35.1372 L 49.65,-35
 L 49.6432,-34.8628 L 49.6231,-34.7269 L 49.5897,-34.5936 L 49.5434,-34.4642 L 49.4847,-34.34 L 49.414,-34.2222
 L 49.3322,-34.1118 L 49.2399,-34.01 L 49.1381,-33.9178 L 49.0278,-33.8359 L 48.9099,-33.7653 L 48.7858,-33.7066
 L 48.6564,-33.6603 L 48.5231,-33.6269 L 48.3872,-33.6067 L 48.25,-33.6 z
M 48.1128,-3.60674 L 47.9769,-3.62689 L 47.8436,-3.66028 L 47.7142,-3.70656 L 47.59,-3.7653 L 47.4722,-3.83594
 L 47.3618,-3.91777 L 47.26,-4.01004 L 47.1678,-4.11185 L 47.0859,-4.2222 L 47.0153,-4.34004 L 46.9566,-4.46423
 L 46.9103,-4.5936 L 46.8769,-4.72687 L 46.8567,-4.86276 L 46.85,-5 L 46.8567,-5.13722 L 46.8769,-5.27312
 L 46.9103,-5.40639 L 46.9566,-5.53575 L 47.0153,-5.65994 L 47.0859,-5.77779 L 47.1678,-5.88814 L 47.26,-5.98994
 L 47.3618,-6.08221 L 47.4722,-6.16405 L 47.59,-6.23468 L 47.7142,-6.29343 L 47.8436,-6.33971 L 47.9769,-6.37309
 L 48.1128,-6.39325 L 48.25,-6.39999 L 48.3872,-6.39325 L 48.5231,-6.37309 L 48.6564,-6.33971 L 48.7858,-6.29343
 L 48.9099,-6.23468 L 49.0278,-6.16405 L 49.1381,-6.08221 L 49.2399,-5.98994 L 49.3322,-5.88814 L 49.414,-5.77779
 L 49.4847,-5.65994 L 49.5434,-5.53575 L 49.5897,-5.40639 L 49.6231,-5.27312 L 49.6432,-5.13722 L 49.65,-5
 L 49.6432,-4.86276 L 49.6231,-4.72687 L 49.5897,-4.5936 L 49.5434,-4.46423 L 49.4847,-4.34004 L 49.414,-4.2222
 L 49.3322,-4.11185 L 49.2399,-4.01004 L 49.1381,-3.91777 L 49.0278,-3.83594 L 48.9099,-3.7653 L 48.7858,-3.70656
 L 48.6564,-3.66028 L 48.5231,-3.62689 L 48.3872,-3.60674 L 48.25,-3.59999 z
M 18.1128,-3.60674 L 17.9769,-3.62689 L 17.8436,-3.66028 L 17.7142,-3.70656 L 17.59,-3.7653 L 17.4722,-3.83594
 L 17.3618,-3.91777 L 17.26,-4.01004 L 17.1678,-4.11185 L 17.0859,-4.2222 L 17.0153,-4.34004 L 16.9566,-4.46423
 L 16.9103,-4.5936 L 16.8769,-4.72687 L 16.8567,-4.86276 L 16.85,-5 L 16.8567,-5.13722 L 16.8769,-5.27312
 L 16.9103,-5.40639 L 16.9566,-5.53575 L 17.0153,-5.65994 L 17.0859,-5.77779 L 17.1678,-5.88814 L 17.26,-5.98994
 L 17.3618,-6.08221 L 17.4722,-6.16405 L 17.59,-6.23468 L 17.7142,-6.29343 L 17.8436,-6.33971 L 17.9769,-6.37309
 L 18.1128,-6.39325 L 18.25,-6.39999 L 18.3872,-6.39325 L 18.5231,-6.37309 L 18.6564,-6.33971 L 18.7858,-6.29343
 L 18.9099,-6.23468 L 19.0278,-6.16405 L 19.1381,-6.08221 L 19.2399,-5.98994 L 19.3322,-5.88814 L 19.414,-5.77779
 L 19.4847,-5.65994 L 19.5434,-5.53575 L 19.5897,-5.40639 L 19.6231,-5.27312 L 19.6432,-5.13722 L 19.65,-5
 L 19.6432,-4.86276 L 19.6231,-4.72687 L 19.5897,-4.5936 L 19.5434,-4.46423 L 19.4847,-4.34004 L 19.414,-4.2222
 L 19.3322,-4.11185 L 19.2399,-4.01004 L 19.1381,-3.91777 L 19.0278,-3.83594 L 18.9099,-3.7653 L 18.7858,-3.70656
 L 18.6564,-3.66028 L 18.5231,-3.62689 L 18.3872,-3.60674 L 18.25,-3.59999 z
M 106.75,-40 L 66.75,-40 L 66.75,-0 L 106.75,-0 z
M 71.6128,-33.6067 L 71.4769,-33.6269 L 71.3436,-33.6603 L 71.2142,-33.7066 L 71.09,-33.7653 L 70.9722,-33.8359
 L 70.8618,-33.9178 L 70.76,-34.01 L 70.6678,-34.1118 L 70.5859,-34.2222 L 70.5153,-34.34 L 70.4566,-34.4642
 L 70.4103,-34.5936 L 70.3769,-34.7269 L 70.3567,-34.8628 L 70.35,-35 L 70.3567,-35.1372 L 70.3769,-35.2731
 L 70.4103,-35.4064 L 70.4566,-35.5358 L 70.5153,-35.6599 L 70.5859,-35.7778 L 70.6678,-35.8881 L 70.76,-35.9899
 L 70.8618,-36.0822 L 70.9722,-36.164 L 71.09,-36.2347 L 71.2142,-36.2934 L 71.3436,-36.3397 L 71.4769,-36.3731
 L 71.6128,-36.3932 L 71.75,-36.4 L 71.8872,-36.3932 L 72.0231,-36.3731 L 72.1564,-36.3397 L 72.2858,-36.2934
 L 72.4099,-36.2347 L 72.5278,-36.164 L 72.6381,-36.0822 L 72.7399,-35.9899 L 72.8322,-35.8881 L 72.914,-35.7778
 L 72.9847,-35.6599 L 73.0434,-35.5358 L 73.0897,-35.4064 L 73.1231,-35.2731 L 73.1432,-35.1372 L 73.15,-35
 L 73.1432,-34.8628 L 73.1231,-34.7269 L 73.0897,-34.5936 L 73.0434,-34.4642 L 72.9847,-34.34 L 72.914,-34.2222
 L 72.8322,-34.1118 L 72.7399,-34.01 L 72.6381,-33.9178 L 72.5278,-33.8359 L 72.4099,-33.7653 L 72.2858,-33.7066
 L 72.1564,-33.6603 L 72.0231,-33.6269 L 71.8872,-33.6067 L 71.75,-33.6 z
M 101.613,-33.6067 L 101.477,-33.6269 L 101.344,-33.6603 L 101.214,-33.7066 L 101.09,-33.7653 L 100.972,-33.8359
 L 100.862,-33.9178 L 100.76,-34.01 L 100.668,-34.1118 L 100.586,-34.2222 L 100.515,-34.34 L 100.457,-34.4642
 L 100.41,-34.5936 L 100.377,-34.7269 L 100.357,-34.8628 L 100.35,-35 L 100.357,-35.1372 L 100.377,-35.2731
 L 100.41,-35.4064 L 100.457,-35.5358 L 100.515,-35.6599 L 100.586,-35.7778 L 100.668,-35.8881 L 100.76,-35.9899
 L 100.862,-36.0822 L 100.972,-36.164 L 101.09,-36.2347 L 101.214,-36.2934 L 101.344,-36.3397 L 101.477,-36.3731
 L 101.613,-36.3932 L 101.75,-36.4 L 101.887,-36.3932 L 102.023,-36.3731 L 102.156,-36.3397 L 102.286,-36.2934
 L 102.41,-36.2347 L 102.528,-36.164 L 102.638,-36.0822 L 102.74,-35.9899 L 102.832,-35.8881 L 102.914,-35.7778
 L 102.985,-35.6599 L 103.043,-35.5358 L 103.09,-35.4064 L 103.123,-35.2731 L 103.143,-35.1372 L 103.15,-35
 L 103.143,-34.8628 L 103.123,-34.7269 L 103.09,-34.5936 L 103.043,-34.4642 L 102.985,-34.34 L 102.914,-34.2222
 L 102.832,-34.1118 L 102.74,-34.01 L 102.638,-33.9178 L 102.528,-33.8359 L 102.41,-33.7653 L 102.286,-33.7066
 L 102.156,-33.6603 L 102.023,-33.6269 L 101.887,-33.6067 L 101.75,-33.6 z
M 101.613,-3.60674 L 101.477,-3.62689 L 101.344,-3.66028 L 101.214,-3.70656 L 101.09,-3.7653 L 100.972,-3.83594
 L 100.862,-3.91777 L 100.76,-4.01004 L 100.668,-4.11185 L 100.586,-4.2222 L 100.515,-4.34004 L 100.457,-4.46423
 L 100.41,-4.5936 L 100.377,-4.72687 L 100.357,-4.86276 L 100.35,-5 L 100.357,-5.13722 L 100.377,-5.27312
 L 100.41,-5.40639 L 100.457,-5.53575 L 100.515,-5.65994 L 100.586,-5.77779 L 100.668,-5.88814 L 100.76,-5.98994
 L 100.862,-6.08221 L 100.972,-6.16405 L 101.09,-6.23468 L 101.214,-6.29343 L 101.344,-6.33971 L 101.477,-6.37309
 L 101.613,-6.39325 L 101.75,-6.39999 L 101.887,-6.39325 L 102.023,-6.37309 L 102.156,-6.33971 L 102.286,-6.29343
 L 102.41,-6.23468 L 102.528,-6.16405 L 102.638,-6.08221 L 102.74,-5.98994 L 102.832,-5.88814 L 102.914,-5.77779
 L 102.985,-5.65994 L 103.043,-5.53575 L 103.09,-5.40639 L 103.123,-5.27312 L 103.143,-5.13722 L 103.15,-5
 L 103.143,-4.86276 L 103.123,-4.72687 L 103.09,-4.5936 L 103.043,-4.46423 L 102.985,-4.34004 L 102.914,-4.2222
 L 102.832,-4.11185 L 102.74,-4.01004 L 102.638,-3.91777 L 102.528,-3.83594 L 102.41,-3.7653 L 102.286,-3.70656
 L 102.156,-3.66028 L 102.023,-3.62689 L 101.887,-3.60674 L 101.75,-3.59999 z
M 71.6128,-3.60674 L 71.4769,-3.62689 L 71.3436,-3.66028 L 71.2142,-3.70656 L 71.09,-3.7653 L 70.9722,-3.83594
 L 70.8618,-3.91777 L 70.76,-4.01004 L 70.6678,-4.11185 L 70.5859,-4.2222 L 70.5153,-4.34004 L 70.4566,-4.46423
 L 70.4103,-4.5936 L 70.3769,-4.72687 L 70.3567,-4.86276 L 70.35,-5 L 70.3567,-5.13722 L 70.3769,-5.27312
 L 70.4103,-5.40639 L 70.4566,-5.53575 L 70.5153,-5.65994 L 70.5859,-5.77779 L 70.6678,-5.88814 L 70.76,-5.98994
 L 70.8618,-6.08221 L 70.9722,-6.16405 L 71.09,-6.23468 L 71.2142,-6.29343 L 71.3436,-6.33971 L 71.4769,-6.37309
 L 71.6128,-6.39325 L 71.75,-6.39999 L 71.8872,-6.39325 L 72.0231,-6.37309 L 72.1564,-6.33971 L 72.2858,-6.29343
 L 72.4099,-6.23468 L 72.5278,-6.16405 L 72.6381,-6.08221 L 72.7399,-5.98994 L 72.8322,-5.88814 L 72.914,-5.77779
 L 72.9847,-5.65994 L 73.0434,-5.53575 L 73.0897,-5.40639 L 73.1231,-5.27312 L 73.1432,-5.13722 L 73.15,-5
 L 73.1432,-4.86276 L 73.1231,-4.72687 L 73.0897,-4.5936 L 73.0434,-4.46423 L 72.9847,-4.34004 L 72.914,-4.2222
 L 72.8322,-4.11185 L 72.7399,-4.01004 L 72.6381,-3.91777 L 72.5278,-3.83594 L 72.4099,-3.7653 L 72.2858,-3.70656
 L 72.1564,-3.66028 L 72.0231,-3.62689 L 71.8872,-3.60674 L 71.75,-3.59999 z
" stroke="black" fill="lightgray" stroke-width="0.5"/>
</svg>
