<?xml version="1.0" standalone="no"?>
<!DOCTYPE svg PUBLIC "-//W3C//DTD SVG 1.1//EN" "http://www.w3.org/Graphics/SVG/1.1/DTD/svg11.dtd">
<svg width="125mm" height="50mm" viewBox="0 -50 125 50" xmlns="http://www.w3.org/2000/svg" version="1.1">
<title>OpenSCAD Model</title>
<path d="
M 125,-50 L 0,-50 L 0,-0 L 125,-0 z
M 9.86276,-43.6067 L 9.72687,-43.6269 L 9.5936,-43.6603 L 9.46423,-43.7066 L 9.34004,-43.7653 L 9.2222,-43.8359
 L 9.11185,-43.9178 L 9.01004,-44.01 L 8.91777,-44.1118 L 8.83594,-44.2222 L 8.7653,-44.34 L 8.70656,-44.4642
 L 8.66028,-44.5936 L 8.62689,-44.7269 L 8.60674,-44.8628 L 8.59999,-45 L 8.60674,-45.1372 L 8.62689,-45.2731
 L 8.66028,-45.4064 L 8.70656,-45.5358 L 8.7653,-45.6599 L 8.83594,-45.7778 L 8.91777,-45.8881 L 9.01004,-45.9899
 L 9.11185,-46.0822 L 9.2222,-46.164 L 9.34004,-46.2347 L 9.46423,-46.2934 L 9.5936,-46.3397 L 9.72687,-46.3731
 L 9.86276,-46.3932 L 10,-46.4 L 10.1372,-46.3932 L 10.2731,-46.3731 L 10.4064,-46.3397 L 10.5358,-46.2934
 L 10.6599,-46.2347 L 10.7778,-46.164 L 10.8881,-46.0822 L 10.9899,-45.9899 L 11.0822,-45.8881 L 11.164,-45.7778
 L 11.2347,-45.6599 L 11.2934,-45.5358 L 11.3397,-45.4064 L 11.3731,-45.2731 L 11.3932,-45.1372 L 11.4,-45
 L 11.3932,-44.8628 L 11.3731,-44.7269 L 11.3397,-44.5936 L 11.2934,-44.4642 L 11.2347,-44.34 L 11.164,-44.2222
 L 11.0822,-44.1118 L 10.9899,-44.01 L 10.8881,-43.9178 L 10.7778,-43.8359 L 10.6599,-43.7653 L 10.5358,-43.7066
 L 10.4064,-43.6603 L 10.2731,-43.6269 L 10.1372,-43.6067 L 10,-43.6 z
M 24.8628,-43.6067 L 24.7269,-43.6269 L 24.5936,-43.6603 L 24.4642,-43.7066 L 24.34,-43.7653 L 24.2222,-43.8359
 L 24.1118,-43.9178 L 24.01,-44.01 L 23.9178,-44.1118 L 23.8359,-44.2222 L 23.7653,-44.34 L 23.7066,-44.4642
 L 23.6603,-44.5936 L 23.6269,-44.7269 L 23.6067,-44.8628 L 23.6,-45 L 23.6067,-45.1372 L 23.6269,-45.2731
 L 23.6603,-45.4064 L 23.7066,-45.5358 L 23.7653,-45.6599 L 23.8359,-45.7778 L 23.9178,-45.8881 L 24.01,-45.9899
 L 24.1118,-46.0822 L 24.2222,-46.164 L 24.34,-46.2347 L 24.4642,-46.2934 L 24.5936,-46.3397 L 24.7269,-46.3731
 L 24.8628,-46.3932 L 25,-46.4 L 25.1372,-46.3932 L 25.2731,-46.3731 L 25.4064,-46.3397 L 25.5358,-46.2934
 L 25.6599,-46.2347 L 25.7778,-46.164 L 25.8881,-46.0822 L 25.9899,-45.9899 L 26.0822,-45.8881 L 26.164,-45.7778
 L 26.2347,-45.6599 L 26.2934,-45.5358 L 26.3397,-45.4064 L 26.3731,-45.2731 L 26.3932,-45.1372 L 26.4,-45
 L 26.3932,-44.8628 L 26.3731,-44.7269 L 26.3397,-44.5936 L 26.2934,-44.4642 L 26.2347,-44.34 L 26.164,-44.2222
 L 26.0822,-44.1118 L 25.9899,-44.01 L 25.8881,-43.9178 L 25.7778,-43.8359 L 25.6599,-43.7653 L 25.5358,-43.7066
 L 25.4064,-43.6603 L 25.2731,-43.6269 L 25.1372,-43.6067 L 25,-43.6 z
M 39.8628,-43.6067 L 39.7269,-43.6269 L 39.5936,-43.6603 L 39.4642,-43.7066 L 39.34,-43.7653 L 39.2222,-43.8359
 L 39.1118,-43.9178 L 39.01,-44.01 L 38.9178,-44.1118 L 38.8359,-44.2222 L 38.7653,-44.34 L 38.7066,-44.4642
 L 38.6603,-44.5936 L 38.6269,-44.7269 L 38.6067,-44.8628 L 38.6,-45 L 38.6067,-45.1372 L 38.6269,-45.2731
 L 38.6603,-45.4064 L 38.7066,-45.5358 L 38.7653,-45.6599 L 38.8359,-45.7778 L 38.9178,-45.8881 L 39.01,-45.9899
 L 39.1118,-46.0822 L 39.2222,-46.164 L 39.34,-46.2347 L 39.4642,-46.2934 L 39.5936,-46.3397 L 39.7269,-46.3731
 L 39.8628,-46.3932 L 40,-46.4 L 40.1372,-46.3932 L 40.2731,-46.3731 L 40.4064,-46.3397 L 40.5358,-46.2934
 L 40.6599,-46.2347 L 40.7778,-46.164 L 40.8881,-46.0822 L 40.9899,-45.9899 L 41.0822,-45.8881 L 41.164,-45.7778
 L 41.2347,-45.6599 L 41.2934,-45.5358 L 41.3397,-45.4064 L 41.3731,-45.2731 L 41.3932,-45.1372 L 41.4,-45
 L 41.3932,-44.8628 L 41.3731,-44.7269 L 41.3397,-44.5936 L 41.2934,-44.4642 L 41.2347,-44.34 L 41.164,-44.2222
 L 41.0822,-44.1118 L 40.9899,-44.01 L 40.8881,-43.9178 L 40.7778,-43.8359 L 40.6599,-43.7653 L 40.5358,-43.7066
 L 40.4064,-43.6603 L 40.2731,-43.6269 L 40.1372,-43.6067 L 40,-43.6 z
M 54.8628,-43.6067 L 54.7269,-43.6269 L 54.5936,-43.6603 L 54.4642,-43.7066 L 54.34,-43.7653 L 54.2222,-43.8359
 L 54.1118,-43.9178 L 54.01,-44.01 L 53.9178,-44.1118 L 53.8359,-44.2222 L 53.7653,-44.34 L 53.7066,-44.4642
 L 53.6603,-44.5936 L 53.6269,-44.7269 L 53.6067,-44.8628 L 53.6,-45 L 53.6067,-45.1372 L 53.6269,-45.2731
 L 53.6603,-45.4064 L 53.7066,-45.5358 L 53.7653,-45.6599 L 53.8359,-45.7778 L 53.9178,-45.8881 L 54.01,-45.9899
 L 54.1118,-46.0822 L 54.2222,-46.164 L 54.34,-46.2347 L 54.4642,-46.2934 L 54.5936,-46.3397 L 54.7269,-46.3731
 L 54.8628,-46.3932 L 55,-46.4 L 55.1372,-46.3932 L 55.2731,-46.3731 L 55.4064,-46.3397 L 55.5358,-46.2934
 L 55.6599,-46.2347 L 55.7778,-46.164 L 55.8881,-46.0822 L 55.9899,-45.9899 L 56.0822,-45.8881 L 56.164,-45.7778
 L 56.2347,-45.6599 L 56.2934,-45.5358 L 56.3397,-45.4064 L 56.3731,-45.2731 L 56.3932,-45.1372 L 56.4,-45
 L 56.3932,-44.8628 L 56.3731,-44.7269 L 56.3397,-44.5936 L 56.2934,-44.4642 L 56.2347,-44.34 L 56.164,-44.2222
 L 56.0822,-44.1118 L 55.9899,-44.01 L 55.8881,-43.9178 L 55.7778,-43.8359 L 55.6599,-43.7653 L 55.5358,-43.7066
 L 55.4064,-43.6603 L 55.2731,-43.6269 L 55.1372,-43.6067 L 55,-43.6 z
M 69.8628,-43.6067 L 69.7269,-43.6269 L 69.5936,-43.6603 L 69.4642,-43.7066 L 69.34,-43.7653 L 69.2222,-43.8359
 L 69.1118,-43.9178 L 69.01,-44.01 L 68.9178,-44.1118 L 68.8359,-44.2222 L 68.7653,-44.34 L 68.7066,-44.4642
 L 68.6603,-44.5936 L 68.6269,-44.7269 L 68.6067,-44.8628 L 68.6,-45 L 68.6067,-45.1372 L 68.6269,-45.2731
 L 68.6603,-45.4064 L 68.7066,-45.5358 L 68.7653,-45.6599 L 68.8359,-45.7778 L 68.9178,-45.8881 L 69.01,-45.9899
 L 69.1118,-46.0822 L 69.2222,-46.164 L 69.34,-46.2347 L 69.4642,-46.2934 L 69.5936,-46.3397 L 69.7269,-46.3731
 L 69.8628,-46.3932 L 70,-46.4 L 70.1372,-46.3932 L 70.2731,-46.3731 L 70.4064,-46.3397 L 70.5358,-46.2934
 L 70.6599,-46.2347 L 70.7778,-46.164 L 70.8881,-46.0822 L 70.9899,-45.9899 L 71.0822,-45.8881 L 71.164,-45.7778
 L 71.2347,-45.6599 L 71.2934,-45.5358 L 71.3397,-45.4064 L 71.3731,-45.2731 L 71.3932,-45.1372 L 71.4,-45
 L 71.3932,-44.8628 L 71.3731,-44.7269 L 71.3397,-44.5936 L 71.2934,-44.4642 L 71.2347,-44.34 L 71.164,-44.2222
 L 71.0822,-44.1118 L 70.9899,-44.01 L 70.8881,-43.9178 L 70.7778,-43.8359 L 70.6599,-43.7653 L 70.5358,-43.7066
 L 70.4064,-43.6603 L 70.2731,-43.6269 L 70.1372,-43.6067 L 70,-43.6 z
M 84.8628,-43.6067 L 84.7269,-43.6269 L 84.5936,-43.6603 L 84.4642,-43.7066 L 84.34,-43.7653 L 84.2222,-43.8359
 L 84.1118,-43.9178 L 84.01,-44.01 L 83.9178,-44.1118 L 83.8359,-44.2222 L 83.7653,-44.34 L 83.7066,-44.4642
 L 83.6603,-44.5936 L 83.6269,-44.7269 L 83.6067,-44.8628 L 83.6,-45 L 83.6067,-45.1372 L 83.6269,-45.2731
 L 83.6603,-45.4064 L 83.7066,-45.5358 L 83.7653,-45.6599 L 83.8359,-45.7778 L 83.9178,-45.8881 L 84.01,-45.9899
 L 84.1118,-46.0822 L 84.2222,-46.164 L 84.34,-46.2347 L 84.4642,-46.2934 L 84.5936,-46.3397 L 84.7269,-46.3731
 L 84.8628,-46.3932 L 85,-46.4 L 85.1372,-46.3932 L 85.2731,-46.3731 L 85.4064,-46.3397 L 85.5358,-46.2934
 L 85.6599,-46.2347 L 85.7778,-46.164 L 85.8881,-46.0822 L 85.9899,-45.9899 L 86.0822,-45.8881 L 86.164,-45.7778
 L 86.2347,-45.6599 L 86.2934,-45.5358 L 86.3397,-45.4064 L 86.3731,-45.2731 L 86.3932,-45.1372 L 86.4,-45
 L 86.3932,-44.8628 L 86.3731,-44.7269 L 86.3397,-44.5936 L 86.2934,-44.4642 L 86.2347,-44.34 L 86.164,-44.2222
 L 86.0822,-44.1118 L 85.9899,-44.01 L 85.8881,-43.9178 L 85.7778,-43.8359 L 85.6599,-43.7653 L 85.5358,-43.7066
 L 85.4064,-43.6603 L 85.2731,-43.6269 L 85.1372,-43.6067 L 85,-43.6 z
M 99.8628,-43.6067 L 99.7269,-43.6269 L 99.5936,-43.6603 L 99.4642,-43.7066 L 99.34,-43.7653 L 99.2222,-43.8359
 L 99.1118,-43.9178 L 99.01,-44.01 L 98.9178,-44.1118 L 98.8359,-44.2222 L 98.7653,-44.34 L 98.7066,-44.4642
 L 98.6603,-44.5936 L 98.6269,-44.7269 L 98.6067,-44.8628 L 98.6,-45 L 98.6067,-45.1372 L 98.6269,-45.2731
 L 98.6603,-45.4064 L 98.7066,-45.5358 L 98.7653,-45.6599 L 98.8359,-45.7778 L 98.9178,-45.8881 L 99.01,-45.9899
 L 99.1118,-46.0822 L 99.2222,-46.164 L 99.34,-46.2347 L 99.4642,-46.2934 L 99.5936,-46.3397 L 99.7269,-46.3731
 L 99.8628,-46.3932 L 100,-46.4 L 100.137,-46.3932 L 100.273,-46.3731 L 100.406,-46.3397 L 100.536,-46.2934
 L 100.66,-46.2347 L 100.778,-46.164 L 100.888,-46.0822 L 100.99,-45.9899 L 101.082,-45.8881 L 101.164,-45.7778
 L 101.235,-45.6599 L 101.293,-45.5358 L 101.34,-45.4064 L 101.373,-45.2731 L 101.393,-45.1372 L 101.4,-45
 L 101.393,-44.8628 L 101.373,-44.7269 L 101.34,-44.5936 L 101.293,-44.4642 L 101.235,-44.34 L 101.164,-44.2222
 L 101.082,-44.1118 L 100.99,-44.01 L 100.888,-43.9178 L 100.778,-43.8359 L 100.66,-43.7653 L 100.536,-43.7066
 L 100.406,-43.6603 L 100.273,-43.6269 L 100.137,-43.6067 L 100,-43.6 z
M 114.863,-43.6067 L 114.727,-43.6269 L 114.594,-43.6603 L 114.464,-43.7066 L 114.34,-43.7653 L 114.222,-43.8359
 L 114.112,-43.9178 L 114.01,-44.01 L 113.918,-44.1118 L 113.836,-44.2222 L 113.765,-44.34 L 113.707,-44.4642
 L 113.66,-44.5936 L 113.627,-44.7269 L 113.607,-44.8628 L 113.6,-45 L 113.607,-45.1372 L 113.627,-45.2731
 L 113.66,-45.4064 L 113.707,-45.5358 L 113.765,-45.6599 L 113.836,-45.7778 L 113.918,-45.8881 L 114.01,-45.9899
 L 114.112,-46.0822 L 114.222,-46.164 L 114.34,-46.2347 L 114.464,-46.2934 L 114.594,-46.3397 L 114.727,-46.3731
 L 114.863,-46.3932 L 115,-46.4 L 115.137,-46.3932 L 115.273,-46.3731 L 115.406,-46.3397 L 115.536,-46.2934
 L 115.66,-46.2347 L 115.778,-46.164 L 115.888,-46.0822 L 115.99,-45.9899 L 116.082,-45.8881 L 116.164,-45.7778
 L 116.235,-45.6599 L 116.293,-45.5358 L 116.34,-45.4064 L 116.373,-45.2731 L 116.393,-45.1372 L 116.4,-45
 L 116.393,-44.8628 L 116.373,-44.7269 L 116.34,-44.5936 L 116.293,-44.4642 L 116.235,-44.34 L 116.164,-44.2222
 L 116.082,-44.1118 L 115.99,-44.01 L 115.888,-43.9178 L 115.778,-43.8359 L 115.66,-43.7653 L 115.536,-43.7066
 L 115.406,-43.6603 L 115.273,-43.6269 L 115.137,-43.6067 L 115,-43.6 z
M 24.8628,-3.60674 L 24.7269,-3.62689 L 24.5936,-3.66028 L 24.4642,-3.70656 L 24.34,-3.7653 L 24.2222,-3.83594
 L 24.1118,-3.91777 L 24.01,-4.01004 L 23.9178,-4.11185 L 23.8359,-4.2222 L 23.7653,-4.34004 L 23.7066,-4.46423
 L 23.6603,-4.5936 L 23.6269,-4.72687 L 23.6067,-4.86276 L 23.6,-5 L 23.6067,-5.13722 L 23.6269,-5.27312
 L 23.6603,-5.40639 L 23.7066,-5.53575 L 23.7653,-5.65994 L 23.8359,-5.77779 L 23.9178,-5.88814 L 24.01,-5.98994
 L 24.1118,-6.08221 L 24.2222,-6.16405 L 24.34,-6.23468 L 24.4642,-6.29343 L 24.5936,-6.33971 L 24.7269,-6.37309
 L 24.8628,-6.39325 L 25,-6.39999 L 25.1372,-6.39325 L 25.2731,-6.37309 L 25.4064,-6.33971 L 25.5358,-6.29343
 L 25.6599,-6.23468 L 25.7778,-6.16405 L 25.8881,-6.08221 L 25.9899,-5.98994 L 26.0822,-5.88814 L 26.164,-5.77779
 L 26.2347,-5.65994 L 26.2934,-5.53575 L 26.3397,-5.40639 L 26.3731,-5.27312 L 26.3932,-5.13722 L 26.4,-5
 L 26.3932,-4.86276 L 26.3731,-4.72687 L 26.3397,-4.5936 L 26.2934,-4.46423 L 26.2347,-4.34004 L 26.164,-4.2222
 L 26.0822,-4.11185 L 25.9899,-4.01004 L 25.8881,-3.91777 L 25.7778,-3.83594 L 25.6599,-3.7653 L 25.5358,-3.70656
 L 25.4064,-3.66028 L 25.2731,-3.62689 L 25.1372,-3.60674 L 25,-3.59999 z
M 9.86276,-3.60674 L 9.72687,-3.62689 L 9.5936,-3.66028 L 9.46423,-3.70656 L 9.34004,-3.7653 L 9.2222,-3.83594
 L 9.11185,-3.91777 L 9.01004,-4.01004 L 8.91777,-4.11185 L 8.83594,-4.2222 L 8.7653,-4.34004 L 8.70656,-4.46423
 L 8.66028,-4.5936 L 8.62689,-4.72687 L 8.60674,-4.86276 L 8.59999,-5 L 8.60674,-5.13722 L 8.62689,-5.27312
 L 8.66028,-5.40639 L 8.70656,-5.53575 L 8.7653,-5.65994 L 8.83594,-5.77779 L 8.91777,-5.88814 L 9.01004,-5.98994
 L 9.11185,-6.08221 L 9.2222,-6.16405 L 9.34004,-6.23468 L 9.46423,-6.29343 L 9.5936,-6.33971 L 9.72687,-6.37309
 L 9.86276,-6.39325 L 10,-6.39999 L 10.1372,-6.39325 L 10.2731,-6.37309 L 10.4064,-6.33971 L 10.5358,-6.29343
 L 10.6599,-6.23468 L 10.7778,-6.16405 L 10.8881,-6.08221 L 10.9899,-5.98994 L 11.0822,-5.88814 L 11.164,-5.77779
 L 11.2347,-5.65994 L 11.2934,-5.53575 L 11.3397,-5.40639 L 11.3731,-5.27312 L 11.3932,-5.13722 L 11.4,-5
 L 11.3932,-4.86276 L 11.3731,-4.72687 L 11.3397,-4.5936 L 11.2934,-4.46423 L 11.2347,-4.34004 L 11.164,-4.2222
 L 11.0822,-4.11185 L 10.9899,-4.01004 L 10.8881,-3.91777 L 10.7778,-3.83594 L 10.6599,-3.7653 L 10.5358,-3.70656
 L 10.4064,-3.66028 L 10.2731,-3.62689 L 10.1372,-3.60674 L 10,-3.59999 z
M 54.8628,-3.60674 L 54.7269,-3.62689 L 54.5936,-3.66028 L 54.4642,-3.70656 L 54.34,-3.7653 L 54.2222,-3.83594
 L 54.1118,-3.91777 L 54.01,-4.01004 L 53.9178,-4.11185 L 53.8359,-4.2222 L 53.7653,-4.34004 L 53.7066,-4.46423
 L 53.6603,-4.5936 L 53.6269,-4.72687 L 53.6067,-4.86276 L 53.6,-5 L 53.6067,-5.13722 L 53.6269,-5.27312
 L 53.6603,-5.40639 L 53.7066,-5.53575 L 53.7653,-5.65994 L 53.8359,-5.77779 L 53.9178,-5.88814 L 54.01,-5.98994
 L 54.1118,-6.08221 L 54.2222,-6.16405 L 54.34,-6.23468 L 54.4642,-6.29343 L 54.5936,-6.33971 L 54.7269,-6.37309
 L 54.8628,-6.39325 L 55,-6.39999 L 55.1372,-6.39325 L 55.2731,-6.37309 L 55.4064,-6.33971 L 55.5358,-6.29343
 L 55.6599,-6.23468 L 55.7778,-6.16405 L 55.8881,-6.08221 L 55.9899,-5.98994 L 56.0822,-5.88814 L 56.164,-5.77779
 L 56.2347,-5.65994 L 56.2934,-5.53575 L 56.3397,-5.40639 L 56.3731,-5.27312 L 56.3932,-5.13722 L 56.4,-5
 L 56.3932,-4.86276 L 56.3731,-4.72687 L 56.3397,-4.5936 L 56.2934,-4.46423 L 56.2347,-4.34004 L 56.164,-4.2222
 L 56.0822,-4.11185 L 55.9899,-4.01004 L 55.8881,-3.91777 L 55.7778,-3.83594 L 55.6599,-3.7653 L 55.5358,-3.70656
 L 55.4064,-3.66028 L 55.2731,-3.62689 L 55.1372,-3.60674 L 55,-3.59999 z
M 39.8628,-3.60674 L 39.7269,-3.62689 L 39.5936,-3.66028 L 39.4642,-3.70656 L 39.34,-3.7653 L 39.2222,-3.83594
 L 39.1118,-3.91777 L 39.01,-4.01004 L 38.9178,-4.11185 L 38.8359,-4.2222 L 38.7653,-4.34004 L 38.7066,-4.46423
 L 38.6603,-4.5936 L 38.6269,-4.72687 L 38.6067,-4.86276 L 38.6,-5 L 38.6067,-5.13722 L 38.6269,-5.27312
 L 38.6603,-5.40639 L 38.7066,-5.53575 L 38.7653,-5.65994 L 38.8359,-5.77779 L 38.9178,-5.88814 L 39.01,-5.98994
 L 39.1118,-6.08221 L 39.2222,-6.16405 L 39.34,-6.23468 L 39.4642,-6.29343 L 39.5936,-6.33971 L 39.7269,-6.37309
 L 39.8628,-6.39325 L 40,-6.39999 L 40.1372,-6.39325 L 40.2731,-6.37309 L 40.4064,-6.33971 L 40.5358,-6.29343
 L 40.6599,-6.23468 L 40.7778,-6.16405 L 40.8881,-6.08221 L 40.9899,-5.98994 L 41.0822,-5.88814 L 41.164,-5.77779
 L 41.2347,-5.65994 L 41.2934,-5.53575 L 41.3397,-5.40639 L 41.3731,-5.27312 L 41.3932,-5.13722 L 41.4,-5
 L 41.3932,-4.86276 L 41.3731,-4.72687 L 41.3397,-4.5936 L 41.2934,-4.46423 L 41.2347,-4.34004 L 41.164,-4.2222
 L 41.0822,-4.11185 L 40.9899,-4.01004 L 40.8881,-3.91777 L 40.7778,-3.83594 L 40.6599,-3.7653 L 40.5358,-3.70656
 L 40.4064,-3.66028 L 40.2731,-3.62689 L 40.1372,-3.60674 L 40,-3.59999 z
M 84.8628,-3.60674 L 84.7269,-3.62689 L 84.5936,-3.66028 L 84.4642,-3.70656 L 84.34,-3.7653 L 84.2222,-3.83594
 L 84.1118,-3.91777 L 84.01,-4.01004 L 83.9178,-4.11185 L 83.8359,-4.2222 L 83.7653,-4.34004 L 83.7066,-4.46423
 L 83.6603,-4.5936 L 83.6269,-4.72687 L 83.6067,-4.86276 L 83.6,-5 L 83.6067,-5.13722 L 83.6269,-5.27312
 L 83.6603,-5.40639 L 83.7066,-5.53575 L 83.7653,-5.65994 L 83.8359,-5.77779 L 83.9178,-5.88814 L 84.01,-5.98994
 L 84.1118,-6.08221 L 84.2222,-6.16405 L 84.34,-6.23468 L 84.4642,-6.29343 L 84.5936,-6.33971 L 84.7269,-6.37309
 L 84.8628,-6.39325 L 85,-6.39999 L 85.1372,-6.39325 L 85.2731,-6.37309 L 85.4064,-6.33971 L 85.5358,-6.29343
 L 85.6599,-6.23468 L 85.7778,-6.16405 L 85.8881,-6.08221 L 85.9899,-5.98994 L 86.0822,-5.88814 L 86.164,-5.77779
 L 86.2347,-5.65994 L 86.2934,-5.53575 L 86.3397,-5.40639 L 86.3731,-5.27312 L 86.3932,-5.13722 L 86.4,-5
 L 86.3932,-4.86276 L 86.3731,-4.72687 L 86.3397,-4.5936 L 86.2934,-4.46423 L 86.2347,-4.34004 L 86.164,-4.2222
 L 86.0822,-4.11185 L 85.9899,-4.01004 L 85.8881,-3.91777 L 85.7778,-3.83594 L 85.6599,-3.7653 L 85.5358,-3.70656
 L 85.4064,-3.66028 L 85.2731,-3.62689 L 85.1372,-3.60674 L 85,-3.59999 z
M 69.8628,-3.60674 L 69.7269,-3.62689 L 69.5936,-3.66028 L 69.4642,-3.70656 L 69.34,-3.7653 L 69.2222,-3.83594
 L 69.1118,-3.91777 L 69.01,-4.01004 L 68.9178,-4.11185 L 68.8359,-4.2222 L 68.7653,-4.34004 L 68.7066,-4.46423
 L 68.6603,-4.5936 L 68.6269,-4.72687 L 68.6067,-4.86276 L 68.6,-5 L 68.6067,-5.13722 L 68.6269,-5.27312
 L 68.6603,-5.40639 L 68.7066,-5.53575 L 68.7653,-5.65994 L 68.8359,-5.77779 L 68.9178,-5.88814 L 69.01,-5.98994
 L 69.1118,-6.08221 L 69.2222,-6.16405 L 69.34,-6.23468 L 69.4642,-6.29343 L 69.5936,-6.33971 L 69.7269,-6.37309
 L 69.8628,-6.39325 L 70,-6.39999 L 70.1372,-6.39325 L 70.2731,-6.37309 L 70.4064,-6.33971 L 70.5358,-6.29343
 L 70.6599,-6.23468 L 70.7778,-6.16405 L 70.8881,-6.08221 L 70.9899,-5.98994 L 71.0822,-5.88814 L 71.164,-5.77779
 L 71.2347,-5.65994 L 71.2934,-5.53575 L 71.3397,-5.40639 L 71.3731,-5.27312 L 71.3932,-5.13722 L 71.4,-5
 L 71.3932,-4.86276 L 71.3731,-4.72687 L 71.3397,-4.5936 L 71.2934,-4.46423 L 71.2347,-4.34004 L 71.164,-4.2222
 L 71.0822,-4.11185 L 70.9899,-4.01004 L 70.8881,-3.91777 L 70.7778,-3.83594 L 70.6599,-3.7653 L 70.5358,-3.70656
 L 70.4064,-3.66028 L 70.2731,-3.62689 L 70.1372,-3.60674 L 70,-3.59999 z
M 114.863,-3.60674 L 114.727,-3.62689 L 114.594,-3.66028 L 114.464,-3.70656 L 114.34,-3.7653 L 114.222,-3.83594
 L 114.112,-3.91777 L 114.01,-4.01004 L 113.918,-4.11185 L 113.836,-4.2222 L 113.765,-4.34004 L 113.707,-4.46423
 L 113.66,-4.5936 L 113.627,-4.72687 L 113.607,-4.86276 L 113.6,-5 L 113.607,-5.13722 L 113.627,-5.27312
 L 113.66,-5.40639 L 113.707,-5.53575 L 113.765,-5.65994 L 113.836,-5.77779 L 113.918,-5.88814 L 114.01,-5.98994
 L 114.112,-6.08221 L 114.222,-6.16405 L 114.34,-6.23468 L 114.464,-6.29343 L 114.594,-6.33971 L 114.727,-6.37309
 L 114.863,-6.39325 L 115,-6.39999 L 115.137,-6.39325 L 115.273,-6.37309 L 115.406,-6.33971 L 115.536,-6.29343
 L 115.66,-6.23468 L 115.778,-6.16405 L 115.888,-6.08221 L 115.99,-5.98994 L 116.082,-5.88814 L 116.164,-5.77779
 L 116.235,-5.65994 L 116.293,-5.53575 L 116.34,-5.40639 L 116.373,-5.27312 L 116.393,-5.13722 L 116.4,-5
 L 116.393,-4.86276 L 116.373,-4.72687 L 116.34,-4.5936 L 116.293,-4.46423 L 116.235,-4.34004 L 116.164,-4.2222
 L 116.082,-4.11185 L 115.99,-4.01004 L 115.888,-3.91777 L 115.778,-3.83594 L 115.66,-3.7653 L 115.536,-3.70656
 L 115.406,-3.66028 L 115.273,-3.62689 L 115.137,-3.60674 L 115,-3.59999 z
M 99.8628,-3.60674 L 99.7269,-3.62689 L 99.5936,-3.66028 L 99.4642,-3.70656 L 99.34,-3.7653 L 99.2222,-3.83594
 L 99.1118,-3.91777 L 99.01,-4.01004 L 98.9178,-4.11185 L 98.8359,-4.2222 L 98.7653,-4.34004 L 98.7066,-4.46423
 L 98.6603,-4.5936 L 98.6269,-4.72687 L 98.6067,-4.86276 L 98.6,-5 L 98.6067,-5.13722 L 98.6269,-5.27312
 L 98.6603,-5.40639 L 98.7066,-5.53575 L 98.7653,-5.65994 L 98.8359,-5.77779 L 98.9178,-5.88814 L 99.01,-5.98994
 L 99.1118,-6.08221 L 99.2222,-6.16405 L 99.34,-6.23468 L 99.4642,-6.29343 L 99.5936,-6.33971 L 99.7269,-6.37309
 L 99.8628,-6.39325 L 100,-6.39999 L 100.137,-6.39325 L 100.273,-6.37309 L 100.406,-6.33971 L 100.536,-6.29343
 L 100.66,-6.23468 L 100.778,-6.16405 L 100.888,-6.08221 L 100.99,-5.98994 L 101.082,-5.88814 L 101.164,-5.77779
 L 101.235,-5.65994 L 101.293,-5.53575 L 101.34,-5.40639 L 101.373,-5.27312 L 101.393,-5.13722 L 101.4,-5
 L 101.393,-4.86276 L 101.373,-4.72687 L 101.34,-4.5936 L 101.293,-4.46423 L 101.235,-4.34004 L 101.164,-4.2222
 L 101.082,-4.11185 L 100.99,-4.01004 L 100.888,-3.91777 L 100.778,-3.83594 L 100.66,-3.7653 L 100.536,-3.70656
 L 100.406,-3.66028 L 100.273,-3.62689 L 100.137,-3.60674 L 100,-3.59999 z
" stroke="black" fill="lightgray" stroke-width="0.5"/>
</svg>
