<?xml version="1.0" standalone="no"?>
<!DOCTYPE svg PUBLIC "-//W3C//DTD SVG 1.1//EN" "http://www.w3.org/Graphics/SVG/1.1/DTD/svg11.dtd">
<svg width="200mm" height="120mm" viewBox="0 -120 200 120" xmlns="http://www.w3.org/2000/svg" version="1.1">
<title>OpenSCAD Model</title>
<path d="
M 200,-120 L 0,-120 L 0,-0 L 200,-0 z
M 175.5,-96.5833 L 175.5,-117.083 L 196,-117.083 L 196,-96.5833 z
M 195.75,-116.833 L 175.75,-116.833 L 175.75,-96.8333 L 195.75,-96.8333 z
M 4,-96.5833 L 4,-117.083 L 24.5,-117.083 L 24.5,-96.5833 z
M 24.25,-116.833 L 4.25,-116.833 L 4.25,-96.8333 L 24.25,-96.8333 z
M 126.5,-96.5833 L 126.5,-117.083 L 147,-117.083 L 147,-96.5833 z
M 146.75,-116.833 L 126.75,-116.833 L 126.75,-96.8333 L 146.75,-96.8333 z
M 28.5,-96.5833 L 28.5,-117.083 L 49,-117.083 L 49,-96.5833 z
M 48.75,-116.833 L 28.75,-116.833 L 28.75,-96.8333 L 48.75,-96.8333 z
M 53,-96.5833 L 53,-117.083 L 73.5,-117.083 L 73.5,-96.5833 z
M 73.25,-116.833 L 53.25,-116.833 L 53.25,-96.8333 L 73.25,-96.8333 z
M 77.5,-96.5833 L 77.5,-117.083 L 98,-117.083 L 98,-96.5833 z
M 97.75,-116.833 L 77.75,-116.833 L 77.75,-96.8333 L 97.75,-96.8333 z
M 151,-96.5833 L 151,-117.083 L 171.5,-117.083 L 171.5,-96.5833 z
M 171.25,-116.833 L 151.25,-116.833 L 151.25,-96.8333 L 171.25,-96.8333 z
M 102,-96.5833 L 102,-117.083 L 122.5,-117.083 L 122.5,-96.5833 z
M 122.25,-116.833 L 102.25,-116.833 L 102.25,-96.8333 L 122.25,-96.8333 z
M 175.5,-73.1667 L 175.5,-93.6667 L 196,-93.6667 L 196,-73.1667 z
M 195.75,-93.4167 L 175.75,-93.4167 L 175.75,-73.4167 L 195.75,-73.4167 z
M 28.5,-73.1667 L 28.5,-93.6667 L 49,-93.6667 L 49,-73.1667 z
M 48.75,-93.4167 L 28.75,-93.4167 L 28.75,-73.4167 L 48.75,-73.4167 z
M 126.5,-73.1667 L 126.5,-93.6667 L 147,-93.6667 L 147,-73.1667 z
M 146.75,-93.4167 L 126.75,-93.4167 L 126.75,-73.4167 L 146.75,-73.4167 z
M 53,-73.1667 L 53,-93.6667 L 73.5,-93.6667 L 73.5,-73.1667 z
M 73.25,-93.4167 L 53.25,-93.4167 L 53.25,-73.4167 L 73.25,-73.4167 z
M 151,-73.1667 L 151,-93.6667 L 171.5,-93.6667 L 171.5,-73.1667 z
M 171.25,-93.4167 L 151.25,-93.4167 L 151.25,-73.4167 L 171.25,-73.4167 z
M 77.5,-73.1667 L 77.5,-93.6667 L 98,-93.6667 L 98,-73.1667 z
M 97.75,-93.4167 L 77.75,-93.4167 L 77.75,-73.4167 L 97.75,-73.4167 z
M 102,-73.1667 L 102,-93.6667 L 122.5,-93.6667 L 122.5,-73.1667 z
M 122.25,-93.4167 L 102.25,-93.4167 L 102.25,-73.4167 L 122.25,-73.4167 z
M 4,-73.1667 L 4,-93.6667 L 24.5,-93.6667 L 24.5,-73.1667 z
M 24.25,-93.4167 L 4.25,-93.4167 L 4.25,-73.4167 L 24.25,-73.4167 z
M 102,-49.75 L 102,-70.25 L 122.5,-70.25 L 122.5,-49.75 z
M 122.25,-70 L 102.25,-70 L 102.25,-50 L 122.25,-50 z
M 77.5,-49.75 L 77.5,-70.25 L 98,-70.25 L 98,-49.75 z
M 97.75,-70 L 77.75,-70 L 77.75,-50 L 97.75,-50 z
M 126.5,-49.75 L 126.5,-70.25 L 147,-70.25 L 147,-49.75 z
M 146.75,-70 L 126.75,-70 L 126.75,-50 L 146.75,-50 z
M 53,-49.75 L 53,-70.25 L 73.5,-70.25 L 73.5,-49.75 z
M 73.25,-70 L 53.25,-70 L 53.25,-50 L 73.25,-50 z
M 28.5,-49.75 L 28.5,-70.25 L 49,-70.25 L 49,-49.75 z
M 48.75,-70 L 28.75,-70 L 28.75,-50 L 48.75,-50 z
M 4,-49.75 L 4,-70.25 L 24.5,-70.25 L 24.5,-49.75 z
M 24.25,-70 L 4.25,-70 L 4.25,-50 L 24.25,-50 z
M 151,-49.75 L 151,-70.25 L 171.5,-70.25 L 171.5,-49.75 z
M 171.25,-70 L 151.25,-70 L 151.25,-50 L 171.25,-50 z
M 175.5,-49.75 L 175.5,-70.25 L 196,-70.25 L 196,-49.75 z
M 195.75,-70 L 175.75,-70 L 175.75,-50 L 195.75,-50 z
M 4,-26.3333 L 4,-46.8333 L 24.5,-46.8333 L 24.5,-26.3333 z
M 24.25,-46.5833 L 4.25,-46.5833 L 4.25,-26.5833 L 24.25,-26.5833 z
M 28.5,-26.3333 L 28.5,-46.8333 L 49,-46.8333 L 49,-26.3333 z
M 48.75,-46.5833 L 28.75,-46.5833 L 28.75,-26.5833 L 48.75,-26.5833 z
M 53,-26.3333 L 53,-46.8333 L 73.5,-46.8333 L 73.5,-26.3333 z
M 73.25,-46.5833 L 53.25,-46.5833 L 53.25,-26.5833 L 73.25,-26.5833 z
M 175.5,-26.3333 L 175.5,-46.8333 L 196,-46.8333 L 196,-26.3333 z
M 195.75,-46.5833 L 175.75,-46.5833 L 175.75,-26.5833 L 195.75,-26.5833 z
M 126.5,-26.3333 L 126.5,-46.8333 L 147,-46.8333 L 147,-26.3333 z
M 146.75,-46.5833 L 126.75,-46.5833 L 126.75,-26.5833 L 146.75,-26.5833 z
M 77.5,-26.3333 L 77.5,-46.8333 L 98,-46.8333 L 98,-26.3333 z
M 97.75,-46.5833 L 77.75,-46.5833 L 77.75,-26.5833 L 97.75,-26.5833 z
M 102,-26.3333 L 102,-46.8333 L 122.5,-46.8333 L 122.5,-26.3333 z
M 122.25,-46.5833 L 102.25,-46.5833 L 102.25,-26.5833 L 122.25,-26.5833 z
M 151,-26.3333 L 151,-46.8333 L 171.5,-46.8333 L 171.5,-26.3333 z
M 171.25,-46.5833 L 151.25,-46.5833 L 151.25,-26.5833 L 171.25,-26.5833 z
M 102,-2.91666 L 102,-23.4167 L 122.5,-23.4167 L 122.5,-2.91666 z
M 122.25,-23.1667 L 102.25,-23.1667 L 102.25,-3.16666 L 122.25,-3.16666 z
M 28.5,-2.91666 L 28.5,-23.4167 L 49,-23.4167 L 49,-2.91666 z
M 48.75,-23.1667 L 28.75,-23.1667 L 28.75,-3.16666 L 48.75,-3.16666 z
M 53,-2.91666 L 53,-23.4167 L 73.5,-23.4167 L 73.5,-2.91666 z
M 73.25,-23.1667 L 53.25,-23.1667 L 53.25,-3.16666 L 73.25,-3.16666 z
M 77.5,-2.91666 L 77.5,-23.4167 L 98,-23.4167 L 98,-2.91666 z
M 97.75,-23.1667 L 77.75,-23.1667 L 77.75,-3.16666 L 97.75,-3.16666 z
M 175.5,-2.91666 L 175.5,-23.4167 L 196,-23.4167 L 196,-2.91666 z
M 195.75,-23.1667 L 175.75,-23.1667 L 175.75,-3.16666 L 195.75,-3.16666 z
M 4,-2.91666 L 4,-23.4167 L 24.5,-23.4167 L 24.5,-2.91666 z
M 24.25,-23.1667 L 4.25,-23.1667 L 4.25,-3.16666 L 24.25,-3.16666 z
M 126.5,-2.91666 L 126.5,-23.4167 L 147,-23.4167 L 147,-2.91666 z
M 146.75,-23.1667 L 126.75,-23.1667 L 126.75,-3.16666 L 146.75,-3.16666 z
M 151,-2.91666 L 151,-23.4167 L 171.5,-23.4167 L 171.5,-2.91666 z
M 171.25,-23.1667 L 151.25,-23.1667 L 151.25,-3.16666 L 171.25,-3.16666 z
" stroke="black" fill="lightgray" stroke-width="0.5"/>
</svg>
