<?xml version="1.0" standalone="no"?>
<!DOCTYPE svg PUBLIC "-//W3C//DTD SVG 1.1//EN" "http://www.w3.org/Graphics/SVG/1.1/DTD/svg11.dtd">
<svg width="100mm" height="40mm" viewBox="0 -40 100 40" xmlns="http://www.w3.org/2000/svg" version="1.1">
<title>OpenSCAD Model</title>
<path d="
M 100,-40 L 0,-40 L 0,-0 L 100,-0 z
M 44.8628,-33.6067 L 44.7269,-33.6269 L 44.5936,-33.6603 L 44.4642,-33.7066 L 44.34,-33.7653 L 44.2222,-33.8359
 L 44.1118,-33.9178 L 44.01,-34.01 L 43.9178,-34.1118 L 43.8359,-34.2222 L 43.7653,-34.34 L 43.7066,-34.4642
 L 43.6603,-34.5936 L 43.6269,-34.7269 L 43.6067,-34.8628 L 43.6,-35 L 43.6067,-35.1372 L 43.6269,-35.2731
 L 43.6603,-35.4064 L 43.7066,-35.5358 L 43.7653,-35.6599 L 43.8359,-35.7778 L 43.9178,-35.8881 L 44.01,-35.9899
 L 44.1118,-36.0822 L 44.2222,-36.164 L 44.34,-36.2347 L 44.4642,-36.2934 L 44.5936,-36.3397 L 44.7269,-36.3731
 L 44.8628,-36.3932 L 45,-36.4 L 45.1372,-36.3932 L 45.2731,-36.3731 L 45.4064,-36.3397 L 45.5358,-36.2934
 L 45.6599,-36.2347 L 45.7778,-36.164 L 45.8881,-36.0822 L 45.9899,-35.9899 L 46.0822,-35.8881 L 46.164,-35.7778
 L 46.2347,-35.6599 L 46.2934,-35.5358 L 46.3397,-35.4064 L 46.3731,-35.2731 L 46.3932,-35.1372 L 46.4,-35
 L 46.3932,-34.8628 L 46.3731,-34.7269 L 46.3397,-34.5936 L 46.2934,-34.4642 L 46.2347,-34.34 L 46.164,-34.2222
 L 46.0822,-34.1118 L 45.9899,-34.01 L 45.8881,-33.9178 L 45.7778,-33.8359 L 45.6599,-33.7653 L 45.5358,-33.7066
 L 45.4064,-33.6603 L 45.2731,-33.6269 L 45.1372,-33.6067 L 45,-33.6 z
M 94.8628,-33.6067 L 94.7269,-33.6269 L 94.5936,-33.6603 L 94.4642,-33.7066 L 94.34,-33.7653 L 94.2222,-33.8359
 L 94.1118,-33.9178 L 94.01,-34.01 L 93.9178,-34.1118 L 93.8359,-34.2222 L 93.7653,-34.34 L 93.7066,-34.4642
 L 93.6603,-34.5936 L 93.6269,-34.7269 L 93.6067,-34.8628 L 93.6,-35 L 93.6067,-35.1372 L 93.6269,-35.2731
 L 93.6603,-35.4064 L 93.7066,-35.5358 L 93.7653,-35.6599 L 93.8359,-35.7778 L 93.9178,-35.8881 L 94.01,-35.9899
 L 94.1118,-36.0822 L 94.2222,-36.164 L 94.34,-36.2347 L 94.4642,-36.2934 L 94.5936,-36.3397 L 94.7269,-36.3731
 L 94.8628,-36.3932 L 95,-36.4 L 95.1372,-36.3932 L 95.2731,-36.3731 L 95.4064,-36.3397 L 95.5358,-36.2934
 L 95.6599,-36.2347 L 95.7778,-36.164 L 95.8881,-36.0822 L 95.9899,-35.9899 L 96.0822,-35.8881 L 96.164,-35.7778
 L 96.2347,-35.6599 L 96.2934,-35.5358 L 96.3397,-35.4064 L 96.3731,-35.2731 L 96.3932,-35.1372 L 96.4,-35
 L 96.3932,-34.8628 L 96.3731,-34.7269 L 96.3397,-34.5936 L 96.2934,-34.4642 L 96.2347,-34.34 L 96.164,-34.2222
 L 96.0822,-34.1118 L 95.9899,-34.01 L 95.8881,-33.9178 L 95.7778,-33.8359 L 95.6599,-33.7653 L 95.5358,-33.7066
 L 95.4064,-33.6603 L 95.2731,-33.6269 L 95.1372,-33.6067 L 95,-33.6 z
M 84.8628,-33.6067 L 84.7269,-33.6269 L 84.5936,-33.6603 L 84.4642,-33.7066 L 84.34,-33.7653 L 84.2222,-33.8359
 L 84.1118,-33.9178 L 84.01,-34.01 L 83.9178,-34.1118 L 83.8359,-34.2222 L 83.7653,-34.34 L 83.7066,-34.4642
 L 83.6603,-34.5936 L 83.6269,-34.7269 L 83.6067,-34.8628 L 83.6,-35 L 83.6067,-35.1372 L 83.6269,-35.2731
 L 83.6603,-35.4064 L 83.7066,-35.5358 L 83.7653,-35.6599 L 83.8359,-35.7778 L 83.9178,-35.8881 L 84.01,-35.9899
 L 84.1118,-36.0822 L 84.2222,-36.164 L 84.34,-36.2347 L 84.4642,-36.2934 L 84.5936,-36.3397 L 84.7269,-36.3731
 L 84.8628,-36.3932 L 85,-36.4 L 85.1372,-36.3932 L 85.2731,-36.3731 L 85.4064,-36.3397 L 85.5358,-36.2934
 L 85.6599,-36.2347 L 85.7778,-36.164 L 85.8881,-36.0822 L 85.9899,-35.9899 L 86.0822,-35.8881 L 86.164,-35.7778
 L 86.2347,-35.6599 L 86.2934,-35.5358 L 86.3397,-35.4064 L 86.3731,-35.2731 L 86.3932,-35.1372 L 86.4,-35
 L 86.3932,-34.8628 L 86.3731,-34.7269 L 86.3397,-34.5936 L 86.2934,-34.4642 L 86.2347,-34.34 L 86.164,-34.2222
 L 86.0822,-34.1118 L 85.9899,-34.01 L 85.8881,-33.9178 L 85.7778,-33.8359 L 85.6599,-33.7653 L 85.5358,-33.7066
 L 85.4064,-33.6603 L 85.2731,-33.6269 L 85.1372,-33.6067 L 85,-33.6 z
M 74.8628,-33.6067 L 74.7269,-33.6269 L 74.5936,-33.6603 L 74.4642,-33.7066 L 74.34,-33.7653 L 74.2222,-33.8359
 L 74.1118,-33.9178 L 74.01,-34.01 L 73.9178,-34.1118 L 73.8359,-34.2222 L 73.7653,-34.34 L 73.7066,-34.4642
 L 73.6603,-34.5936 L 73.6269,-34.7269 L 73.6067,-34.8628 L 73.6,-35 L 73.6067,-35.1372 L 73.6269,-35.2731
 L 73.6603,-35.4064 L 73.7066,-35.5358 L 73.7653,-35.6599 L 73.8359,-35.7778 L 73.9178,-35.8881 L 74.01,-35.9899
 L 74.1118,-36.0822 L 74.2222,-36.164 L 74.34,-36.2347 L 74.4642,-36.2934 L 74.5936,-36.3397 L 74.7269,-36.3731
 L 74.8628,-36.3932 L 75,-36.4 L 75.1372,-36.3932 L 75.2731,-36.3731 L 75.4064,-36.3397 L 75.5358,-36.2934
 L 75.6599,-36.2347 L 75.7778,-36.164 L 75.8881,-36.0822 L 75.9899,-35.9899 L 76.0822,-35.8881 L 76.164,-35.7778
 L 76.2347,-35.6599 L 76.2934,-35.5358 L 76.3397,-35.4064 L 76.3731,-35.2731 L 76.3932,-35.1372 L 76.4,-35
 L 76.3932,-34.8628 L 76.3731,-34.7269 L 76.3397,-34.5936 L 76.2934,-34.4642 L 76.2347,-34.34 L 76.164,-34.2222
 L 76.0822,-34.1118 L 75.9899,-34.01 L 75.8881,-33.9178 L 75.7778,-33.8359 L 75.6599,-33.7653 L 75.5358,-33.7066
 L 75.4064,-33.6603 L 75.2731,-33.6269 L 75.1372,-33.6067 L 75,-33.6 z
M 4.86276,-33.6067 L 4.72687,-33.6269 L 4.5936,-33.6603 L 4.46423,-33.7066 L 4.34004,-33.7653 L 4.2222,-33.8359
 L 4.11185,-33.9178 L 4.01004,-34.01 L 3.91777,-34.1118 L 3.83594,-34.2222 L 3.7653,-34.34 L 3.70656,-34.4642
 L 3.66028,-34.5936 L 3.62689,-34.7269 L 3.60674,-34.8628 L 3.59999,-35 L 3.60674,-35.1372 L 3.62689,-35.2731
 L 3.66028,-35.4064 L 3.70656,-35.5358 L 3.7653,-35.6599 L 3.83594,-35.7778 L 3.91777,-35.8881 L 4.01004,-35.9899
 L 4.11185,-36.0822 L 4.2222,-36.164 L 4.34004,-36.2347 L 4.46423,-36.2934 L 4.5936,-36.3397 L 4.72687,-36.3731
 L 4.86276,-36.3932 L 5,-36.4 L 5.13722,-36.3932 L 5.27312,-36.3731 L 5.40639,-36.3397 L 5.53575,-36.2934
 L 5.65994,-36.2347 L 5.77779,-36.164 L 5.88814,-36.0822 L 5.98994,-35.9899 L 6.08221,-35.8881 L 6.16405,-35.7778
 L 6.23468,-35.6599 L 6.29343,-35.5358 L 6.33971,-35.4064 L 6.37309,-35.2731 L 6.39325,-35.1372 L 6.39999,-35
 L 6.39325,-34.8628 L 6.37309,-34.7269 L 6.33971,-34.5936 L 6.29343,-34.4642 L 6.23468,-34.34 L 6.16405,-34.2222
 L 6.08221,-34.1118 L 5.98994,-34.01 L 5.88814,-33.9178 L 5.77779,-33.8359 L 5.65994,-33.7653 L 5.53575,-33.7066
 L 5.40639,-33.6603 L 5.27312,-33.6269 L 5.13722,-33.6067 L 5,-33.6 z
M 14.8628,-33.6067 L 14.7269,-33.6269 L 14.5936,-33.6603 L 14.4642,-33.7066 L 14.34,-33.7653 L 14.2222,-33.8359
 L 14.1118,-33.9178 L 14.01,-34.01 L 13.9178,-34.1118 L 13.8359,-34.2222 L 13.7653,-34.34 L 13.7066,-34.4642
 L 13.6603,-34.5936 L 13.6269,-34.7269 L 13.6067,-34.8628 L 13.6,-35 L 13.6067,-35.1372 L 13.6269,-35.2731
 L 13.6603,-35.4064 L 13.7066,-35.5358 L 13.7653,-35.6599 L 13.8359,-35.7778 L 13.9178,-35.8881 L 14.01,-35.9899
 L 14.1118,-36.0822 L 14.2222,-36.164 L 14.34,-36.2347 L 14.4642,-36.2934 L 14.5936,-36.3397 L 14.7269,-36.3731
 L 14.8628,-36.3932 L 15,-36.4 L 15.1372,-36.3932 L 15.2731,-36.3731 L 15.4064,-36.3397 L 15.5358,-36.2934
 L 15.6599,-36.2347 L 15.7778,-36.164 L 15.8881,-36.0822 L 15.9899,-35.9899 L 16.0822,-35.8881 L 16.164,-35.7778
 L 16.2347,-35.6599 L 16.2934,-35.5358 L 16.3397,-35.4064 L 16.3731,-35.2731 L 16.3932,-35.1372 L 16.4,-35
 L 16.3932,-34.8628 L 16.3731,-34.7269 L 16.3397,-34.5936 L 16.2934,-34.4642 L 16.2347,-34.34 L 16.164,-34.2222
 L 16.0822,-34.1118 L 15.9899,-34.01 L 15.8881,-33.9178 L 15.7778,-33.8359 L 15.6599,-33.7653 L 15.5358,-33.7066
 L 15.4064,-33.6603 L 15.2731,-33.6269 L 15.1372,-33.6067 L 15,-33.6 z
M 64.8628,-33.6067 L 64.7269,-33.6269 L 64.5936,-33.6603 L 64.4642,-33.7066 L 64.34,-33.7653 L 64.2222,-33.8359
 L 64.1118,-33.9178 L 64.01,-34.01 L 63.9178,-34.1118 L 63.8359,-34.2222 L 63.7653,-34.34 L 63.7066,-34.4642
 L 63.6603,-34.5936 L 63.6269,-34.7269 L 63.6067,-34.8628 L 63.6,-35 L 63.6067,-35.1372 L 63.6269,-35.2731
 L 63.6603,-35.4064 L 63.7066,-35.5358 L 63.7653,-35.6599 L 63.8359,-35.7778 L 63.9178,-35.8881 L 64.01,-35.9899
 L 64.1118,-36.0822 L 64.2222,-36.164 L 64.34,-36.2347 L 64.4642,-36.2934 L 64.5936,-36.3397 L 64.7269,-36.3731
 L 64.8628,-36.3932 L 65,-36.4 L 65.1372,-36.3932 L 65.2731,-36.3731 L 65.4064,-36.3397 L 65.5358,-36.2934
 L 65.6599,-36.2347 L 65.7778,-36.164 L 65.8881,-36.0822 L 65.9899,-35.9899 L 66.0822,-35.8881 L 66.164,-35.7778
 L 66.2347,-35.6599 L 66.2934,-35.5358 L 66.3397,-35.4064 L 66.3731,-35.2731 L 66.3932,-35.1372 L 66.4,-35
 L 66.3932,-34.8628 L 66.3731,-34.7269 L 66.3397,-34.5936 L 66.2934,-34.4642 L 66.2347,-34.34 L 66.164,-34.2222
 L 66.0822,-34.1118 L 65.9899,-34.01 L 65.8881,-33.9178 L 65.7778,-33.8359 L 65.6599,-33.7653 L 65.5358,-33.7066
 L 65.4064,-33.6603 L 65.2731,-33.6269 L 65.1372,-33.6067 L 65,-33.6 z
M 54.8628,-33.6067 L 54.7269,-33.6269 L 54.5936,-33.6603 L 54.4642,-33.7066 L 54.34,-33.7653 L 54.2222,-33.8359
 L 54.1118,-33.9178 L 54.01,-34.01 L 53.9178,-34.1118 L 53.8359,-34.2222 L 53.7653,-34.34 L 53.7066,-34.4642
 L 53.6603,-34.5936 L 53.6269,-34.7269 L 53.6067,-34.8628 L 53.6,-35 L 53.6067,-35.1372 L 53.6269,-35.2731
 L 53.6603,-35.4064 L 53.7066,-35.5358 L 53.7653,-35.6599 L 53.8359,-35.7778 L 53.9178,-35.8881 L 54.01,-35.9899
 L 54.1118,-36.0822 L 54.2222,-36.164 L 54.34,-36.2347 L 54.4642,-36.2934 L 54.5936,-36.3397 L 54.7269,-36.3731
 L 54.8628,-36.3932 L 55,-36.4 L 55.1372,-36.3932 L 55.2731,-36.3731 L 55.4064,-36.3397 L 55.5358,-36.2934
 L 55.6599,-36.2347 L 55.7778,-36.164 L 55.8881,-36.0822 L 55.9899,-35.9899 L 56.0822,-35.8881 L 56.164,-35.7778
 L 56.2347,-35.6599 L 56.2934,-35.5358 L 56.3397,-35.4064 L 56.3731,-35.2731 L 56.3932,-35.1372 L 56.4,-35
 L 56.3932,-34.8628 L 56.3731,-34.7269 L 56.3397,-34.5936 L 56.2934,-34.4642 L 56.2347,-34.34 L 56.164,-34.2222
 L 56.0822,-34.1118 L 55.9899,-34.01 L 55.8881,-33.9178 L 55.7778,-33.8359 L 55.6599,-33.7653 L 55.5358,-33.7066
 L 55.4064,-33.6603 L 55.2731,-33.6269 L 55.1372,-33.6067 L 55,-33.6 z
M 34.8628,-33.6067 L 34.7269,-33.6269 L 34.5936,-33.6603 L 34.4642,-33.7066 L 34.34,-33.7653 L 34.2222,-33.8359
 L 34.1118,-33.9178 L 34.01,-34.01 L 33.9178,-34.1118 L 33.8359,-34.2222 L 33.7653,-34.34 L 33.7066,-34.4642
 L 33.6603,-34.5936 L 33.6269,-34.7269 L 33.6067,-34.8628 L 33.6,-35 L 33.6067,-35.1372 L 33.6269,-35.2731
 L 33.6603,-35.4064 L 33.7066,-35.5358 L 33.7653,-35.6599 L 33.8359,-35.7778 L 33.9178,-35.8881 L 34.01,-35.9899
 L 34.1118,-36.0822 L 34.2222,-36.164 L 34.34,-36.2347 L 34.4642,-36.2934 L 34.5936,-36.3397 L 34.7269,-36.3731
 L 34.8628,-36.3932 L 35,-36.4 L 35.1372,-36.3932 L 35.2731,-36.3731 L 35.4064,-36.3397 L 35.5358,-36.2934
 L 35.6599,-36.2347 L 35.7778,-36.164 L 35.8881,-36.0822 L 35.9899,-35.9899 L 36.0822,-35.8881 L 36.164,-35.7778
 L 36.2347,-35.6599 L 36.2934,-35.5358 L 36.3397,-35.4064 L 36.3731,-35.2731 L 36.3932,-35.1372 L 36.4,-35
 L 36.3932,-34.8628 L 36.3731,-34.7269 L 36.3397,-34.5936 L 36.2934,-34.4642 L 36.2347,-34.34 L 36.164,-34.2222
 L 36.0822,-34.1118 L 35.9899,-34.01 L 35.8881,-33.9178 L 35.7778,-33.8359 L 35.6599,-33.7653 L 35.5358,-33.7066
 L 35.4064,-33.6603 L 35.2731,-33.6269 L 35.1372,-33.6067 L 35,-33.6 z
M 24.8628,-33.6067 L 24.7269,-33.6269 L 24.5936,-33.6603 L 24.4642,-33.7066 L 24.34,-33.7653 L 24.2222,-33.8359
 L 24.1118,-33.9178 L 24.01,-34.01 L 23.9178,-34.1118 L 23.8359,-34.2222 L 23.7653,-34.34 L 23.7066,-34.4642
 L 23.6603,-34.5936 L 23.6269,-34.7269 L 23.6067,-34.8628 L 23.6,-35 L 23.6067,-35.1372 L 23.6269,-35.2731
 L 23.6603,-35.4064 L 23.7066,-35.5358 L 23.7653,-35.6599 L 23.8359,-35.7778 L 23.9178,-35.8881 L 24.01,-35.9899
 L 24.1118,-36.0822 L 24.2222,-36.164 L 24.34,-36.2347 L 24.4642,-36.2934 L 24.5936,-36.3397 L 24.7269,-36.3731
 L 24.8628,-36.3932 L 25,-36.4 L 25.1372,-36.3932 L 25.2731,-36.3731 L 25.4064,-36.3397 L 25.5358,-36.2934
 L 25.6599,-36.2347 L 25.7778,-36.164 L 25.8881,-36.0822 L 25.9899,-35.9899 L 26.0822,-35.8881 L 26.164,-35.7778
 L 26.2347,-35.6599 L 26.2934,-35.5358 L 26.3397,-35.4064 L 26.3731,-35.2731 L 26.3932,-35.1372 L 26.4,-35
 L 26.3932,-34.8628 L 26.3731,-34.7269 L 26.3397,-34.5936 L 26.2934,-34.4642 L 26.2347,-34.34 L 26.164,-34.2222
 L 26.0822,-34.1118 L 25.9899,-34.01 L 25.8881,-33.9178 L 25.7778,-33.8359 L 25.6599,-33.7653 L 25.5358,-33.7066
 L 25.4064,-33.6603 L 25.2731,-33.6269 L 25.1372,-33.6067 L 25,-33.6 z
M 84.8628,-23.6067 L 84.7269,-23.6269 L 84.5936,-23.6603 L 84.4642,-23.7066 L 84.34,-23.7653 L 84.2222,-23.8359
 L 84.1118,-23.9178 L 84.01,-24.01 L 83.9178,-24.1118 L 83.8359,-24.2222 L 83.7653,-24.34 L 83.7066,-24.4642
 L 83.6603,-24.5936 L 83.6269,-24.7269 L 83.6067,-24.8628 L 83.6,-25 L 83.6067,-25.1372 L 83.6269,-25.2731
 L 83.6603,-25.4064 L 83.7066,-25.5358 L 83.7653,-25.6599 L 83.8359,-25.7778 L 83.9178,-25.8881 L 84.01,-25.9899
 L 84.1118,-26.0822 L 84.2222,-26.164 L 84.34,-26.2347 L 84.4642,-26.2934 L 84.5936,-26.3397 L 84.7269,-26.3731
 L 84.8628,-26.3932 L 85,-26.4 L 85.1372,-26.3932 L 85.2731,-26.3731 L 85.4064,-26.3397 L 85.5358,-26.2934
 L 85.6599,-26.2347 L 85.7778,-26.164 L 85.8881,-26.0822 L 85.9899,-25.9899 L 86.0822,-25.8881 L 86.164,-25.7778
 L 86.2347,-25.6599 L 86.2934,-25.5358 L 86.3397,-25.4064 L 86.3731,-25.2731 L 86.3932,-25.1372 L 86.4,-25
 L 86.3932,-24.8628 L 86.3731,-24.7269 L 86.3397,-24.5936 L 86.2934,-24.4642 L 86.2347,-24.34 L 86.164,-24.2222
 L 86.0822,-24.1118 L 85.9899,-24.01 L 85.8881,-23.9178 L 85.7778,-23.8359 L 85.6599,-23.7653 L 85.5358,-23.7066
 L 85.4064,-23.6603 L 85.2731,-23.6269 L 85.1372,-23.6067 L 85,-23.6 z
M 34.8628,-23.6067 L 34.7269,-23.6269 L 34.5936,-23.6603 L 34.4642,-23.7066 L 34.34,-23.7653 L 34.2222,-23.8359
 L 34.1118,-23.9178 L 34.01,-24.01 L 33.9178,-24.1118 L 33.8359,-24.2222 L 33.7653,-24.34 L 33.7066,-24.4642
 L 33.6603,-24.5936 L 33.6269,-24.7269 L 33.6067,-24.8628 L 33.6,-25 L 33.6067,-25.1372 L 33.6269,-25.2731
 L 33.6603,-25.4064 L 33.7066,-25.5358 L 33.7653,-25.6599 L 33.8359,-25.7778 L 33.9178,-25.8881 L 34.01,-25.9899
 L 34.1118,-26.0822 L 34.2222,-26.164 L 34.34,-26.2347 L 34.4642,-26.2934 L 34.5936,-26.3397 L 34.7269,-26.3731
 L 34.8628,-26.3932 L 35,-26.4 L 35.1372,-26.3932 L 35.2731,-26.3731 L 35.4064,-26.3397 L 35.5358,-26.2934
 L 35.6599,-26.2347 L 35.7778,-26.164 L 35.8881,-26.0822 L 35.9899,-25.9899 L 36.0822,-25.8881 L 36.164,-25.7778
 L 36.2347,-25.6599 L 36.2934,-25.5358 L 36.3397,-25.4064 L 36.3731,-25.2731 L 36.3932,-25.1372 L 36.4,-25
 L 36.3932,-24.8628 L 36.3731,-24.7269 L 36.3397,-24.5936 L 36.2934,-24.4642 L 36.2347,-24.34 L 36.164,-24.2222
 L 36.0822,-24.1118 L 35.9899,-24.01 L 35.8881,-23.9178 L 35.7778,-23.8359 L 35.6599,-23.7653 L 35.5358,-23.7066
 L 35.4064,-23.6603 L 35.2731,-23.6269 L 35.1372,-23.6067 L 35,-23.6 z
M 24.8628,-23.6067 L 24.7269,-23.6269 L 24.5936,-23.6603 L 24.4642,-23.7066 L 24.34,-23.7653 L 24.2222,-23.8359
 L 24.1118,-23.9178 L 24.01,-24.01 L 23.9178,-24.1118 L 23.8359,-24.2222 L 23.7653,-24.34 L 23.7066,-24.4642
 L 23.6603,-24.5936 L 23.6269,-24.7269 L 23.6067,-24.8628 L 23.6,-25 L 23.6067,-25.1372 L 23.6269,-25.2731
 L 23.6603,-25.4064 L 23.7066,-25.5358 L 23.7653,-25.6599 L 23.8359,-25.7778 L 23.9178,-25.8881 L 24.01,-25.9899
 L 24.1118,-26.0822 L 24.2222,-26.164 L 24.34,-26.2347 L 24.4642,-26.2934 L 24.5936,-26.3397 L 24.7269,-26.3731
 L 24.8628,-26.3932 L 25,-26.4 L 25.1372,-26.3932 L 25.2731,-26.3731 L 25.4064,-26.3397 L 25.5358,-26.2934
 L 25.6599,-26.2347 L 25.7778,-26.164 L 25.8881,-26.0822 L 25.9899,-25.9899 L 26.0822,-25.8881 L 26.164,-25.7778
 L 26.2347,-25.6599 L 26.2934,-25.5358 L 26.3397,-25.4064 L 26.3731,-25.2731 L 26.3932,-25.1372 L 26.4,-25
 L 26.3932,-24.8628 L 26.3731,-24.7269 L 26.3397,-24.5936 L 26.2934,-24.4642 L 26.2347,-24.34 L 26.164,-24.2222
 L 26.0822,-24.1118 L 25.9899,-24.01 L 25.8881,-23.9178 L 25.7778,-23.8359 L 25.6599,-23.7653 L 25.5358,-23.7066
 L 25.4064,-23.6603 L 25.2731,-23.6269 L 25.1372,-23.6067 L 25,-23.6 z
M 4.86276,-23.6067 L 4.72687,-23.6269 L 4.5936,-23.6603 L 4.46423,-23.7066 L 4.34004,-23.7653 L 4.2222,-23.8359
 L 4.11185,-23.9178 L 4.01004,-24.01 L 3.91777,-24.1118 L 3.83594,-24.2222 L 3.7653,-24.34 L 3.70656,-24.4642
 L 3.66028,-24.5936 L 3.62689,-24.7269 L 3.60674,-24.8628 L 3.59999,-25 L 3.60674,-25.1372 L 3.62689,-25.2731
 L 3.66028,-25.4064 L 3.70656,-25.5358 L 3.7653,-25.6599 L 3.83594,-25.7778 L 3.91777,-25.8881 L 4.01004,-25.9899
 L 4.11185,-26.0822 L 4.2222,-26.164 L 4.34004,-26.2347 L 4.46423,-26.2934 L 4.5936,-26.3397 L 4.72687,-26.3731
 L 4.86276,-26.3932 L 5,-26.4 L 5.13722,-26.3932 L 5.27312,-26.3731 L 5.40639,-26.3397 L 5.53575,-26.2934
 L 5.65994,-26.2347 L 5.77779,-26.164 L 5.88814,-26.0822 L 5.98994,-25.9899 L 6.08221,-25.8881 L 6.16405,-25.7778
 L 6.23468,-25.6599 L 6.29343,-25.5358 L 6.33971,-25.4064 L 6.37309,-25.2731 L 6.39325,-25.1372 L 6.39999,-25
 L 6.39325,-24.8628 L 6.37309,-24.7269 L 6.33971,-24.5936 L 6.29343,-24.4642 L 6.23468,-24.34 L 6.16405,-24.2222
 L 6.08221,-24.1118 L 5.98994,-24.01 L 5.88814,-23.9178 L 5.77779,-23.8359 L 5.65994,-23.7653 L 5.53575,-23.7066
 L 5.40639,-23.6603 L 5.27312,-23.6269 L 5.13722,-23.6067 L 5,-23.6 z
M 54.8628,-23.6067 L 54.7269,-23.6269 L 54.5936,-23.6603 L 54.4642,-23.7066 L 54.34,-23.7653 L 54.2222,-23.8359
 L 54.1118,-23.9178 L 54.01,-24.01 L 53.9178,-24.1118 L 53.8359,-24.2222 L 53.7653,-24.34 L 53.7066,-24.4642
 L 53.6603,-24.5936 L 53.6269,-24.7269 L 53.6067,-24.8628 L 53.6,-25 L 53.6067,-25.1372 L 53.6269,-25.2731
 L 53.6603,-25.4064 L 53.7066,-25.5358 L 53.7653,-25.6599 L 53.8359,-25.7778 L 53.9178,-25.8881 L 54.01,-25.9899
 L 54.1118,-26.0822 L 54.2222,-26.164 L 54.34,-26.2347 L 54.4642,-26.2934 L 54.5936,-26.3397 L 54.7269,-26.3731
 L 54.8628,-26.3932 L 55,-26.4 L 55.1372,-26.3932 L 55.2731,-26.3731 L 55.4064,-26.3397 L 55.5358,-26.2934
 L 55.6599,-26.2347 L 55.7778,-26.164 L 55.8881,-26.0822 L 55.9899,-25.9899 L 56.0822,-25.8881 L 56.164,-25.7778
 L 56.2347,-25.6599 L 56.2934,-25.5358 L 56.3397,-25.4064 L 56.3731,-25.2731 L 56.3932,-25.1372 L 56.4,-25
 L 56.3932,-24.8628 L 56.3731,-24.7269 L 56.3397,-24.5936 L 56.2934,-24.4642 L 56.2347,-24.34 L 56.164,-24.2222
 L 56.0822,-24.1118 L 55.9899,-24.01 L 55.8881,-23.9178 L 55.7778,-23.8359 L 55.6599,-23.7653 L 55.5358,-23.7066
 L 55.4064,-23.6603 L 55.2731,-23.6269 L 55.1372,-23.6067 L 55,-23.6 z
M 44.8628,-23.6067 L 44.7269,-23.6269 L 44.5936,-23.6603 L 44.4642,-23.7066 L 44.34,-23.7653 L 44.2222,-23.8359
 L 44.1118,-23.9178 L 44.01,-24.01 L 43.9178,-24.1118 L 43.8359,-24.2222 L 43.7653,-24.34 L 43.7066,-24.4642
 L 43.6603,-24.5936 L 43.6269,-24.7269 L 43.6067,-24.8628 L 43.6,-25 L 43.6067,-25.1372 L 43.6269,-25.2731
 L 43.6603,-25.4064 L 43.7066,-25.5358 L 43.7653,-25.6599 L 43.8359,-25.7778 L 43.9178,-25.8881 L 44.01,-25.9899
 L 44.1118,-26.0822 L 44.2222,-26.164 L 44.34,-26.2347 L 44.4642,-26.2934 L 44.5936,-26.3397 L 44.7269,-26.3731
 L 44.8628,-26.3932 L 45,-26.4 L 45.1372,-26.3932 L 45.2731,-26.3731 L 45.4064,-26.3397 L 45.5358,-26.2934
 L 45.6599,-26.2347 L 45.7778,-26.164 L 45.8881,-26.0822 L 45.9899,-25.9899 L 46.0822,-25.8881 L 46.164,-25.7778
 L 46.2347,-25.6599 L 46.2934,-25.5358 L 46.3397,-25.4064 L 46.3731,-25.2731 L 46.3932,-25.1372 L 46.4,-25
 L 46.3932,-24.8628 L 46.3731,-24.7269 L 46.3397,-24.5936 L 46.2934,-24.4642 L 46.2347,-24.34 L 46.164,-24.2222
 L 46.0822,-24.1118 L 45.9899,-24.01 L 45.8881,-23.9178 L 45.7778,-23.8359 L 45.6599,-23.7653 L 45.5358,-23.7066
 L 45.4064,-23.6603 L 45.2731,-23.6269 L 45.1372,-23.6067 L 45,-23.6 z
M 14.8628,-23.6067 L 14.7269,-23.6269 L 14.5936,-23.6603 L 14.4642,-23.7066 L 14.34,-23.7653 L 14.2222,-23.8359
 L 14.1118,-23.9178 L 14.01,-24.01 L 13.9178,-24.1118 L 13.8359,-24.2222 L 13.7653,-24.34 L 13.7066,-24.4642
 L 13.6603,-24.5936 L 13.6269,-24.7269 L 13.6067,-24.8628 L 13.6,-25 L 13.6067,-25.1372 L 13.6269,-25.2731
 L 13.6603,-25.4064 L 13.7066,-25.5358 L 13.7653,-25.6599 L 13.8359,-25.7778 L 13.9178,-25.8881 L 14.01,-25.9899
 L 14.1118,-26.0822 L 14.2222,-26.164 L 14.34,-26.2347 L 14.4642,-26.2934 L 14.5936,-26.3397 L 14.7269,-26.3731
 L 14.8628,-26.3932 L 15,-26.4 L 15.1372,-26.3932 L 15.2731,-26.3731 L 15.4064,-26.3397 L 15.5358,-26.2934
 L 15.6599,-26.2347 L 15.7778,-26.164 L 15.8881,-26.0822 L 15.9899,-25.9899 L 16.0822,-25.8881 L 16.164,-25.7778
 L 16.2347,-25.6599 L 16.2934,-25.5358 L 16.3397,-25.4064 L 16.3731,-25.2731 L 16.3932,-25.1372 L 16.4,-25
 L 16.3932,-24.8628 L 16.3731,-24.7269 L 16.3397,-24.5936 L 16.2934,-24.4642 L 16.2347,-24.34 L 16.164,-24.2222
 L 16.0822,-24.1118 L 15.9899,-24.01 L 15.8881,-23.9178 L 15.7778,-23.8359 L 15.6599,-23.7653 L 15.5358,-23.7066
 L 15.4064,-23.6603 L 15.2731,-23.6269 L 15.1372,-23.6067 L 15,-23.6 z
M 74.8628,-23.6067 L 74.7269,-23.6269 L 74.5936,-23.6603 L 74.4642,-23.7066 L 74.34,-23.7653 L 74.2222,-23.8359
 L 74.1118,-23.9178 L 74.01,-24.01 L 73.9178,-24.1118 L 73.8359,-24.2222 L 73.7653,-24.34 L 73.7066,-24.4642
 L 73.6603,-24.5936 L 73.6269,-24.7269 L 73.6067,-24.8628 L 73.6,-25 L 73.6067,-25.1372 L 73.6269,-25.2731
 L 73.6603,-25.4064 L 73.7066,-25.5358 L 73.7653,-25.6599 L 73.8359,-25.7778 L 73.9178,-25.8881 L 74.01,-25.9899
 L 74.1118,-26.0822 L 74.2222,-26.164 L 74.34,-26.2347 L 74.4642,-26.2934 L 74.5936,-26.3397 L 74.7269,-26.3731
 L 74.8628,-26.3932 L 75,-26.4 L 75.1372,-26.3932 L 75.2731,-26.3731 L 75.4064,-26.3397 L 75.5358,-26.2934
 L 75.6599,-26.2347 L 75.7778,-26.164 L 75.8881,-26.0822 L 75.9899,-25.9899 L 76.0822,-25.8881 L 76.164,-25.7778
 L 76.2347,-25.6599 L 76.2934,-25.5358 L 76.3397,-25.4064 L 76.3731,-25.2731 L 76.3932,-25.1372 L 76.4,-25
 L 76.3932,-24.8628 L 76.3731,-24.7269 L 76.3397,-24.5936 L 76.2934,-24.4642 L 76.2347,-24.34 L 76.164,-24.2222
 L 76.0822,-24.1118 L 75.9899,-24.01 L 75.8881,-23.9178 L 75.7778,-23.8359 L 75.6599,-23.7653 L 75.5358,-23.7066
 L 75.4064,-23.6603 L 75.2731,-23.6269 L 75.1372,-23.6067 L 75,-23.6 z
M 64.8628,-23.6067 L 64.7269,-23.6269 L 64.5936,-23.6603 L 64.4642,-23.7066 L 64.34,-23.7653 L 64.2222,-23.8359
 L 64.1118,-23.9178 L 64.01,-24.01 L 63.9178,-24.1118 L 63.8359,-24.2222 L 63.7653,-24.34 L 63.7066,-24.4642
 L 63.6603,-24.5936 L 63.6269,-24.7269 L 63.6067,-24.8628 L 63.6,-25 L 63.6067,-25.1372 L 63.6269,-25.2731
 L 63.6603,-25.4064 L 63.7066,-25.5358 L 63.7653,-25.6599 L 63.8359,-25.7778 L 63.9178,-25.8881 L 64.01,-25.9899
 L 64.1118,-26.0822 L 64.2222,-26.164 L 64.34,-26.2347 L 64.4642,-26.2934 L 64.5936,-26.3397 L 64.7269,-26.3731
 L 64.8628,-26.3932 L 65,-26.4 L 65.1372,-26.3932 L 65.2731,-26.3731 L 65.4064,-26.3397 L 65.5358,-26.2934
 L 65.6599,-26.2347 L 65.7778,-26.164 L 65.8881,-26.0822 L 65.9899,-25.9899 L 66.0822,-25.8881 L 66.164,-25.7778
 L 66.2347,-25.6599 L 66.2934,-25.5358 L 66.3397,-25.4064 L 66.3731,-25.2731 L 66.3932,-25.1372 L 66.4,-25
 L 66.3932,-24.8628 L 66.3731,-24.7269 L 66.3397,-24.5936 L 66.2934,-24.4642 L 66.2347,-24.34 L 66.164,-24.2222
 L 66.0822,-24.1118 L 65.9899,-24.01 L 65.8881,-23.9178 L 65.7778,-23.8359 L 65.6599,-23.7653 L 65.5358,-23.7066
 L 65.4064,-23.6603 L 65.2731,-23.6269 L 65.1372,-23.6067 L 65,-23.6 z
M 94.8628,-23.6067 L 94.7269,-23.6269 L 94.5936,-23.6603 L 94.4642,-23.7066 L 94.34,-23.7653 L 94.2222,-23.8359
 L 94.1118,-23.9178 L 94.01,-24.01 L 93.9178,-24.1118 L 93.8359,-24.2222 L 93.7653,-24.34 L 93.7066,-24.4642
 L 93.6603,-24.5936 L 93.6269,-24.7269 L 93.6067,-24.8628 L 93.6,-25 L 93.6067,-25.1372 L 93.6269,-25.2731
 L 93.6603,-25.4064 L 93.7066,-25.5358 L 93.7653,-25.6599 L 93.8359,-25.7778 L 93.9178,-25.8881 L 94.01,-25.9899
 L 94.1118,-26.0822 L 94.2222,-26.164 L 94.34,-26.2347 L 94.4642,-26.2934 L 94.5936,-26.3397 L 94.7269,-26.3731
 L 94.8628,-26.3932 L 95,-26.4 L 95.1372,-26.3932 L 95.2731,-26.3731 L 95.4064,-26.3397 L 95.5358,-26.2934
 L 95.6599,-26.2347 L 95.7778,-26.164 L 95.8881,-26.0822 L 95.9899,-25.9899 L 96.0822,-25.8881 L 96.164,-25.7778
 L 96.2347,-25.6599 L 96.2934,-25.5358 L 96.3397,-25.4064 L 96.3731,-25.2731 L 96.3932,-25.1372 L 96.4,-25
 L 96.3932,-24.8628 L 96.3731,-24.7269 L 96.3397,-24.5936 L 96.2934,-24.4642 L 96.2347,-24.34 L 96.164,-24.2222
 L 96.0822,-24.1118 L 95.9899,-24.01 L 95.8881,-23.9178 L 95.7778,-23.8359 L 95.6599,-23.7653 L 95.5358,-23.7066
 L 95.4064,-23.6603 L 95.2731,-23.6269 L 95.1372,-23.6067 L 95,-23.6 z
M 34.8628,-13.6067 L 34.7269,-13.6269 L 34.5936,-13.6603 L 34.4642,-13.7066 L 34.34,-13.7653 L 34.2222,-13.8359
 L 34.1118,-13.9178 L 34.01,-14.01 L 33.9178,-14.1118 L 33.8359,-14.2222 L 33.7653,-14.34 L 33.7066,-14.4642
 L 33.6603,-14.5936 L 33.6269,-14.7269 L 33.6067,-14.8628 L 33.6,-15 L 33.6067,-15.1372 L 33.6269,-15.2731
 L 33.6603,-15.4064 L 33.7066,-15.5358 L 33.7653,-15.6599 L 33.8359,-15.7778 L 33.9178,-15.8881 L 34.01,-15.9899
 L 34.1118,-16.0822 L 34.2222,-16.164 L 34.34,-16.2347 L 34.4642,-16.2934 L 34.5936,-16.3397 L 34.7269,-16.3731
 L 34.8628,-16.3932 L 35,-16.4 L 35.1372,-16.3932 L 35.2731,-16.3731 L 35.4064,-16.3397 L 35.5358,-16.2934
 L 35.6599,-16.2347 L 35.7778,-16.164 L 35.8881,-16.0822 L 35.9899,-15.9899 L 36.0822,-15.8881 L 36.164,-15.7778
 L 36.2347,-15.6599 L 36.2934,-15.5358 L 36.3397,-15.4064 L 36.3731,-15.2731 L 36.3932,-15.1372 L 36.4,-15
 L 36.3932,-14.8628 L 36.3731,-14.7269 L 36.3397,-14.5936 L 36.2934,-14.4642 L 36.2347,-14.34 L 36.164,-14.2222
 L 36.0822,-14.1118 L 35.9899,-14.01 L 35.8881,-13.9178 L 35.7778,-13.8359 L 35.6599,-13.7653 L 35.5358,-13.7066
 L 35.4064,-13.6603 L 35.2731,-13.6269 L 35.1372,-13.6067 L 35,-13.6 z
M 24.8628,-13.6067 L 24.7269,-13.6269 L 24.5936,-13.6603 L 24.4642,-13.7066 L 24.34,-13.7653 L 24.2222,-13.8359
 L 24.1118,-13.9178 L 24.01,-14.01 L 23.9178,-14.1118 L 23.8359,-14.2222 L 23.7653,-14.34 L 23.7066,-14.4642
 L 23.6603,-14.5936 L 23.6269,-14.7269 L 23.6067,-14.8628 L 23.6,-15 L 23.6067,-15.1372 L 23.6269,-15.2731
 L 23.6603,-15.4064 L 23.7066,-15.5358 L 23.7653,-15.6599 L 23.8359,-15.7778 L 23.9178,-15.8881 L 24.01,-15.9899
 L 24.1118,-16.0822 L 24.2222,-16.164 L 24.34,-16.2347 L 24.4642,-16.2934 L 24.5936,-16.3397 L 24.7269,-16.3731
 L 24.8628,-16.3932 L 25,-16.4 L 25.1372,-16.3932 L 25.2731,-16.3731 L 25.4064,-16.3397 L 25.5358,-16.2934
 L 25.6599,-16.2347 L 25.7778,-16.164 L 25.8881,-16.0822 L 25.9899,-15.9899 L 26.0822,-15.8881 L 26.164,-15.7778
 L 26.2347,-15.6599 L 26.2934,-15.5358 L 26.3397,-15.4064 L 26.3731,-15.2731 L 26.3932,-15.1372 L 26.4,-15
 L 26.3932,-14.8628 L 26.3731,-14.7269 L 26.3397,-14.5936 L 26.2934,-14.4642 L 26.2347,-14.34 L 26.164,-14.2222
 L 26.0822,-14.1118 L 25.9899,-14.01 L 25.8881,-13.9178 L 25.7778,-13.8359 L 25.6599,-13.7653 L 25.5358,-13.7066
 L 25.4064,-13.6603 L 25.2731,-13.6269 L 25.1372,-13.6067 L 25,-13.6 z
M 44.8628,-13.6067 L 44.7269,-13.6269 L 44.5936,-13.6603 L 44.4642,-13.7066 L 44.34,-13.7653 L 44.2222,-13.8359
 L 44.1118,-13.9178 L 44.01,-14.01 L 43.9178,-14.1118 L 43.8359,-14.2222 L 43.7653,-14.34 L 43.7066,-14.4642
 L 43.6603,-14.5936 L 43.6269,-14.7269 L 43.6067,-14.8628 L 43.6,-15 L 43.6067,-15.1372 L 43.6269,-15.2731
 L 43.6603,-15.4064 L 43.7066,-15.5358 L 43.7653,-15.6599 L 43.8359,-15.7778 L 43.9178,-15.8881 L 44.01,-15.9899
 L 44.1118,-16.0822 L 44.2222,-16.164 L 44.34,-16.2347 L 44.4642,-16.2934 L 44.5936,-16.3397 L 44.7269,-16.3731
 L 44.8628,-16.3932 L 45,-16.4 L 45.1372,-16.3932 L 45.2731,-16.3731 L 45.4064,-16.3397 L 45.5358,-16.2934
 L 45.6599,-16.2347 L 45.7778,-16.164 L 45.8881,-16.0822 L 45.9899,-15.9899 L 46.0822,-15.8881 L 46.164,-15.7778
 L 46.2347,-15.6599 L 46.2934,-15.5358 L 46.3397,-15.4064 L 46.3731,-15.2731 L 46.3932,-15.1372 L 46.4,-15
 L 46.3932,-14.8628 L 46.3731,-14.7269 L 46.3397,-14.5936 L 46.2934,-14.4642 L 46.2347,-14.34 L 46.164,-14.2222
 L 46.0822,-14.1118 L 45.9899,-14.01 L 45.8881,-13.9178 L 45.7778,-13.8359 L 45.6599,-13.7653 L 45.5358,-13.7066
 L 45.4064,-13.6603 L 45.2731,-13.6269 L 45.1372,-13.6067 L 45,-13.6 z
M 54.8628,-13.6067 L 54.7269,-13.6269 L 54.5936,-13.6603 L 54.4642,-13.7066 L 54.34,-13.7653 L 54.2222,-13.8359
 L 54.1118,-13.9178 L 54.01,-14.01 L 53.9178,-14.1118 L 53.8359,-14.2222 L 53.7653,-14.34 L 53.7066,-14.4642
 L 53.6603,-14.5936 L 53.6269,-14.7269 L 53.6067,-14.8628 L 53.6,-15 L 53.6067,-15.1372 L 53.6269,-15.2731
 L 53.6603,-15.4064 L 53.7066,-15.5358 L 53.7653,-15.6599 L 53.8359,-15.7778 L 53.9178,-15.8881 L 54.01,-15.9899
 L 54.1118,-16.0822 L 54.2222,-16.164 L 54.34,-16.2347 L 54.4642,-16.2934 L 54.5936,-16.3397 L 54.7269,-16.3731
 L 54.8628,-16.3932 L 55,-16.4 L 55.1372,-16.3932 L 55.2731,-16.3731 L 55.4064,-16.3397 L 55.5358,-16.2934
 L 55.6599,-16.2347 L 55.7778,-16.164 L 55.8881,-16.0822 L 55.9899,-15.9899 L 56.0822,-15.8881 L 56.164,-15.7778
 L 56.2347,-15.6599 L 56.2934,-15.5358 L 56.3397,-15.4064 L 56.3731,-15.2731 L 56.3932,-15.1372 L 56.4,-15
 L 56.3932,-14.8628 L 56.3731,-14.7269 L 56.3397,-14.5936 L 56.2934,-14.4642 L 56.2347,-14.34 L 56.164,-14.2222
 L 56.0822,-14.1118 L 55.9899,-14.01 L 55.8881,-13.9178 L 55.7778,-13.8359 L 55.6599,-13.7653 L 55.5358,-13.7066
 L 55.4064,-13.6603 L 55.2731,-13.6269 L 55.1372,-13.6067 L 55,-13.6 z
M 64.8628,-13.6067 L 64.7269,-13.6269 L 64.5936,-13.6603 L 64.4642,-13.7066 L 64.34,-13.7653 L 64.2222,-13.8359
 L 64.1118,-13.9178 L 64.01,-14.01 L 63.9178,-14.1118 L 63.8359,-14.2222 L 63.7653,-14.34 L 63.7066,-14.4642
 L 63.6603,-14.5936 L 63.6269,-14.7269 L 63.6067,-14.8628 L 63.6,-15 L 63.6067,-15.1372 L 63.6269,-15.2731
 L 63.6603,-15.4064 L 63.7066,-15.5358 L 63.7653,-15.6599 L 63.8359,-15.7778 L 63.9178,-15.8881 L 64.01,-15.9899
 L 64.1118,-16.0822 L 64.2222,-16.164 L 64.34,-16.2347 L 64.4642,-16.2934 L 64.5936,-16.3397 L 64.7269,-16.3731
 L 64.8628,-16.3932 L 65,-16.4 L 65.1372,-16.3932 L 65.2731,-16.3731 L 65.4064,-16.3397 L 65.5358,-16.2934
 L 65.6599,-16.2347 L 65.7778,-16.164 L 65.8881,-16.0822 L 65.9899,-15.9899 L 66.0822,-15.8881 L 66.164,-15.7778
 L 66.2347,-15.6599 L 66.2934,-15.5358 L 66.3397,-15.4064 L 66.3731,-15.2731 L 66.3932,-15.1372 L 66.4,-15
 L 66.3932,-14.8628 L 66.3731,-14.7269 L 66.3397,-14.5936 L 66.2934,-14.4642 L 66.2347,-14.34 L 66.164,-14.2222
 L 66.0822,-14.1118 L 65.9899,-14.01 L 65.8881,-13.9178 L 65.7778,-13.8359 L 65.6599,-13.7653 L 65.5358,-13.7066
 L 65.4064,-13.6603 L 65.2731,-13.6269 L 65.1372,-13.6067 L 65,-13.6 z
M 74.8628,-13.6067 L 74.7269,-13.6269 L 74.5936,-13.6603 L 74.4642,-13.7066 L 74.34,-13.7653 L 74.2222,-13.8359
 L 74.1118,-13.9178 L 74.01,-14.01 L 73.9178,-14.1118 L 73.8359,-14.2222 L 73.7653,-14.34 L 73.7066,-14.4642
 L 73.6603,-14.5936 L 73.6269,-14.7269 L 73.6067,-14.8628 L 73.6,-15 L 73.6067,-15.1372 L 73.6269,-15.2731
 L 73.6603,-15.4064 L 73.7066,-15.5358 L 73.7653,-15.6599 L 73.8359,-15.7778 L 73.9178,-15.8881 L 74.01,-15.9899
 L 74.1118,-16.0822 L 74.2222,-16.164 L 74.34,-16.2347 L 74.4642,-16.2934 L 74.5936,-16.3397 L 74.7269,-16.3731
 L 74.8628,-16.3932 L 75,-16.4 L 75.1372,-16.3932 L 75.2731,-16.3731 L 75.4064,-16.3397 L 75.5358,-16.2934
 L 75.6599,-16.2347 L 75.7778,-16.164 L 75.8881,-16.0822 L 75.9899,-15.9899 L 76.0822,-15.8881 L 76.164,-15.7778
 L 76.2347,-15.6599 L 76.2934,-15.5358 L 76.3397,-15.4064 L 76.3731,-15.2731 L 76.3932,-15.1372 L 76.4,-15
 L 76.3932,-14.8628 L 76.3731,-14.7269 L 76.3397,-14.5936 L 76.2934,-14.4642 L 76.2347,-14.34 L 76.164,-14.2222
 L 76.0822,-14.1118 L 75.9899,-14.01 L 75.8881,-13.9178 L 75.7778,-13.8359 L 75.6599,-13.7653 L 75.5358,-13.7066
 L 75.4064,-13.6603 L 75.2731,-13.6269 L 75.1372,-13.6067 L 75,-13.6 z
M 84.8628,-13.6067 L 84.7269,-13.6269 L 84.5936,-13.6603 L 84.4642,-13.7066 L 84.34,-13.7653 L 84.2222,-13.8359
 L 84.1118,-13.9178 L 84.01,-14.01 L 83.9178,-14.1118 L 83.8359,-14.2222 L 83.7653,-14.34 L 83.7066,-14.4642
 L 83.6603,-14.5936 L 83.6269,-14.7269 L 83.6067,-14.8628 L 83.6,-15 L 83.6067,-15.1372 L 83.6269,-15.2731
 L 83.6603,-15.4064 L 83.7066,-15.5358 L 83.7653,-15.6599 L 83.8359,-15.7778 L 83.9178,-15.8881 L 84.01,-15.9899
 L 84.1118,-16.0822 L 84.2222,-16.164 L 84.34,-16.2347 L 84.4642,-16.2934 L 84.5936,-16.3397 L 84.7269,-16.3731
 L 84.8628,-16.3932 L 85,-16.4 L 85.1372,-16.3932 L 85.2731,-16.3731 L 85.4064,-16.3397 L 85.5358,-16.2934
 L 85.6599,-16.2347 L 85.7778,-16.164 L 85.8881,-16.0822 L 85.9899,-15.9899 L 86.0822,-15.8881 L 86.164,-15.7778
 L 86.2347,-15.6599 L 86.2934,-15.5358 L 86.3397,-15.4064 L 86.3731,-15.2731 L 86.3932,-15.1372 L 86.4,-15
 L 86.3932,-14.8628 L 86.3731,-14.7269 L 86.3397,-14.5936 L 86.2934,-14.4642 L 86.2347,-14.34 L 86.164,-14.2222
 L 86.0822,-14.1118 L 85.9899,-14.01 L 85.8881,-13.9178 L 85.7778,-13.8359 L 85.6599,-13.7653 L 85.5358,-13.7066
 L 85.4064,-13.6603 L 85.2731,-13.6269 L 85.1372,-13.6067 L 85,-13.6 z
M 94.8628,-13.6067 L 94.7269,-13.6269 L 94.5936,-13.6603 L 94.4642,-13.7066 L 94.34,-13.7653 L 94.2222,-13.8359
 L 94.1118,-13.9178 L 94.01,-14.01 L 93.9178,-14.1118 L 93.8359,-14.2222 L 93.7653,-14.34 L 93.7066,-14.4642
 L 93.6603,-14.5936 L 93.6269,-14.7269 L 93.6067,-14.8628 L 93.6,-15 L 93.6067,-15.1372 L 93.6269,-15.2731
 L 93.6603,-15.4064 L 93.7066,-15.5358 L 93.7653,-15.6599 L 93.8359,-15.7778 L 93.9178,-15.8881 L 94.01,-15.9899
 L 94.1118,-16.0822 L 94.2222,-16.164 L 94.34,-16.2347 L 94.4642,-16.2934 L 94.5936,-16.3397 L 94.7269,-16.3731
 L 94.8628,-16.3932 L 95,-16.4 L 95.1372,-16.3932 L 95.2731,-16.3731 L 95.4064,-16.3397 L 95.5358,-16.2934
 L 95.6599,-16.2347 L 95.7778,-16.164 L 95.8881,-16.0822 L 95.9899,-15.9899 L 96.0822,-15.8881 L 96.164,-15.7778
 L 96.2347,-15.6599 L 96.2934,-15.5358 L 96.3397,-15.4064 L 96.3731,-15.2731 L 96.3932,-15.1372 L 96.4,-15
 L 96.3932,-14.8628 L 96.3731,-14.7269 L 96.3397,-14.5936 L 96.2934,-14.4642 L 96.2347,-14.34 L 96.164,-14.2222
 L 96.0822,-14.1118 L 95.9899,-14.01 L 95.8881,-13.9178 L 95.7778,-13.8359 L 95.6599,-13.7653 L 95.5358,-13.7066
 L 95.4064,-13.6603 L 95.2731,-13.6269 L 95.1372,-13.6067 L 95,-13.6 z
M 14.8628,-13.6067 L 14.7269,-13.6269 L 14.5936,-13.6603 L 14.4642,-13.7066 L 14.34,-13.7653 L 14.2222,-13.8359
 L 14.1118,-13.9178 L 14.01,-14.01 L 13.9178,-14.1118 L 13.8359,-14.2222 L 13.7653,-14.34 L 13.7066,-14.4642
 L 13.6603,-14.5936 L 13.6269,-14.7269 L 13.6067,-14.8628 L 13.6,-15 L 13.6067,-15.1372 L 13.6269,-15.2731
 L 13.6603,-15.4064 L 13.7066,-15.5358 L 13.7653,-15.6599 L 13.8359,-15.7778 L 13.9178,-15.8881 L 14.01,-15.9899
 L 14.1118,-16.0822 L 14.2222,-16.164 L 14.34,-16.2347 L 14.4642,-16.2934 L 14.5936,-16.3397 L 14.7269,-16.3731
 L 14.8628,-16.3932 L 15,-16.4 L 15.1372,-16.3932 L 15.2731,-16.3731 L 15.4064,-16.3397 L 15.5358,-16.2934
 L 15.6599,-16.2347 L 15.7778,-16.164 L 15.8881,-16.0822 L 15.9899,-15.9899 L 16.0822,-15.8881 L 16.164,-15.7778
 L 16.2347,-15.6599 L 16.2934,-15.5358 L 16.3397,-15.4064 L 16.3731,-15.2731 L 16.3932,-15.1372 L 16.4,-15
 L 16.3932,-14.8628 L 16.3731,-14.7269 L 16.3397,-14.5936 L 16.2934,-14.4642 L 16.2347,-14.34 L 16.164,-14.2222
 L 16.0822,-14.1118 L 15.9899,-14.01 L 15.8881,-13.9178 L 15.7778,-13.8359 L 15.6599,-13.7653 L 15.5358,-13.7066
 L 15.4064,-13.6603 L 15.2731,-13.6269 L 15.1372,-13.6067 L 15,-13.6 z
M 4.86276,-13.6067 L 4.72687,-13.6269 L 4.5936,-13.6603 L 4.46423,-13.7066 L 4.34004,-13.7653 L 4.2222,-13.8359
 L 4.11185,-13.9178 L 4.01004,-14.01 L 3.91777,-14.1118 L 3.83594,-14.2222 L 3.7653,-14.34 L 3.70656,-14.4642
 L 3.66028,-14.5936 L 3.62689,-14.7269 L 3.60674,-14.8628 L 3.59999,-15 L 3.60674,-15.1372 L 3.62689,-15.2731
 L 3.66028,-15.4064 L 3.70656,-15.5358 L 3.7653,-15.6599 L 3.83594,-15.7778 L 3.91777,-15.8881 L 4.01004,-15.9899
 L 4.11185,-16.0822 L 4.2222,-16.164 L 4.34004,-16.2347 L 4.46423,-16.2934 L 4.5936,-16.3397 L 4.72687,-16.3731
 L 4.86276,-16.3932 L 5,-16.4 L 5.13722,-16.3932 L 5.27312,-16.3731 L 5.40639,-16.3397 L 5.53575,-16.2934
 L 5.65994,-16.2347 L 5.77779,-16.164 L 5.88814,-16.0822 L 5.98994,-15.9899 L 6.08221,-15.8881 L 6.16405,-15.7778
 L 6.23468,-15.6599 L 6.29343,-15.5358 L 6.33971,-15.4064 L 6.37309,-15.2731 L 6.39325,-15.1372 L 6.39999,-15
 L 6.39325,-14.8628 L 6.37309,-14.7269 L 6.33971,-14.5936 L 6.29343,-14.4642 L 6.23468,-14.34 L 6.16405,-14.2222
 L 6.08221,-14.1118 L 5.98994,-14.01 L 5.88814,-13.9178 L 5.77779,-13.8359 L 5.65994,-13.7653 L 5.53575,-13.7066
 L 5.40639,-13.6603 L 5.27312,-13.6269 L 5.13722,-13.6067 L 5,-13.6 z
M 24.8628,-3.60674 L 24.7269,-3.62689 L 24.5936,-3.66028 L 24.4642,-3.70656 L 24.34,-3.7653 L 24.2222,-3.83594
 L 24.1118,-3.91777 L 24.01,-4.01004 L 23.9178,-4.11185 L 23.8359,-4.2222 L 23.7653,-4.34004 L 23.7066,-4.46423
 L 23.6603,-4.5936 L 23.6269,-4.72687 L 23.6067,-4.86276 L 23.6,-5 L 23.6067,-5.13722 L 23.6269,-5.27312
 L 23.6603,-5.40639 L 23.7066,-5.53575 L 23.7653,-5.65994 L 23.8359,-5.77779 L 23.9178,-5.88814 L 24.01,-5.98994
 L 24.1118,-6.08221 L 24.2222,-6.16405 L 24.34,-6.23468 L 24.4642,-6.29343 L 24.5936,-6.33971 L 24.7269,-6.37309
 L 24.8628,-6.39325 L 25,-6.39999 L 25.1372,-6.39325 L 25.2731,-6.37309 L 25.4064,-6.33971 L 25.5358,-6.29343
 L 25.6599,-6.23468 L 25.7778,-6.16405 L 25.8881,-6.08221 L 25.9899,-5.98994 L 26.0822,-5.88814 L 26.164,-5.77779
 L 26.2347,-5.65994 L 26.2934,-5.53575 L 26.3397,-5.40639 L 26.3731,-5.27312 L 26.3932,-5.13722 L 26.4,-5
 L 26.3932,-4.86276 L 26.3731,-4.72687 L 26.3397,-4.5936 L 26.2934,-4.46423 L 26.2347,-4.34004 L 26.164,-4.2222
 L 26.0822,-4.11185 L 25.9899,-4.01004 L 25.8881,-3.91777 L 25.7778,-3.83594 L 25.6599,-3.7653 L 25.5358,-3.70656
 L 25.4064,-3.66028 L 25.2731,-3.62689 L 25.1372,-3.60674 L 25,-3.59999 z
M 54.8628,-3.60674 L 54.7269,-3.62689 L 54.5936,-3.66028 L 54.4642,-3.70656 L 54.34,-3.7653 L 54.2222,-3.83594
 L 54.1118,-3.91777 L 54.01,-4.01004 L 53.9178,-4.11185 L 53.8359,-4.2222 L 53.7653,-4.34004 L 53.7066,-4.46423
 L 53.6603,-4.5936 L 53.6269,-4.72687 L 53.6067,-4.86276 L 53.6,-5 L 53.6067,-5.13722 L 53.6269,-5.27312
 L 53.6603,-5.40639 L 53.7066,-5.53575 L 53.7653,-5.65994 L 53.8359,-5.77779 L 53.9178,-5.88814 L 54.01,-5.98994
 L 54.1118,-6.08221 L 54.2222,-6.16405 L 54.34,-6.23468 L 54.4642,-6.29343 L 54.5936,-6.33971 L 54.7269,-6.37309
 L 54.8628,-6.39325 L 55,-6.39999 L 55.1372,-6.39325 L 55.2731,-6.37309 L 55.4064,-6.33971 L 55.5358,-6.29343
 L 55.6599,-6.23468 L 55.7778,-6.16405 L 55.8881,-6.08221 L 55.9899,-5.98994 L 56.0822,-5.88814 L 56.164,-5.77779
 L 56.2347,-5.65994 L 56.2934,-5.53575 L 56.3397,-5.40639 L 56.3731,-5.27312 L 56.3932,-5.13722 L 56.4,-5
 L 56.3932,-4.86276 L 56.3731,-4.72687 L 56.3397,-4.5936 L 56.2934,-4.46423 L 56.2347,-4.34004 L 56.164,-4.2222
 L 56.0822,-4.11185 L 55.9899,-4.01004 L 55.8881,-3.91777 L 55.7778,-3.83594 L 55.6599,-3.7653 L 55.5358,-3.70656
 L 55.4064,-3.66028 L 55.2731,-3.62689 L 55.1372,-3.60674 L 55,-3.59999 z
M 44.8628,-3.60674 L 44.7269,-3.62689 L 44.5936,-3.66028 L 44.4642,-3.70656 L 44.34,-3.7653 L 44.2222,-3.83594
 L 44.1118,-3.91777 L 44.01,-4.01004 L 43.9178,-4.11185 L 43.8359,-4.2222 L 43.7653,-4.34004 L 43.7066,-4.46423
 L 43.6603,-4.5936 L 43.6269,-4.72687 L 43.6067,-4.86276 L 43.6,-5 L 43.6067,-5.13722 L 43.6269,-5.27312
 L 43.6603,-5.40639 L 43.7066,-5.53575 L 43.7653,-5.65994 L 43.8359,-5.77779 L 43.9178,-5.88814 L 44.01,-5.98994
 L 44.1118,-6.08221 L 44.2222,-6.16405 L 44.34,-6.23468 L 44.4642,-6.29343 L 44.5936,-6.33971 L 44.7269,-6.37309
 L 44.8628,-6.39325 L 45,-6.39999 L 45.1372,-6.39325 L 45.2731,-6.37309 L 45.4064,-6.33971 L 45.5358,-6.29343
 L 45.6599,-6.23468 L 45.7778,-6.16405 L 45.8881,-6.08221 L 45.9899,-5.98994 L 46.0822,-5.88814 L 46.164,-5.77779
 L 46.2347,-5.65994 L 46.2934,-5.53575 L 46.3397,-5.40639 L 46.3731,-5.27312 L 46.3932,-5.13722 L 46.4,-5
 L 46.3932,-4.86276 L 46.3731,-4.72687 L 46.3397,-4.5936 L 46.2934,-4.46423 L 46.2347,-4.34004 L 46.164,-4.2222
 L 46.0822,-4.11185 L 45.9899,-4.01004 L 45.8881,-3.91777 L 45.7778,-3.83594 L 45.6599,-3.7653 L 45.5358,-3.70656
 L 45.4064,-3.66028 L 45.2731,-3.62689 L 45.1372,-3.60674 L 45,-3.59999 z
M 34.8628,-3.60674 L 34.7269,-3.62689 L 34.5936,-3.66028 L 34.4642,-3.70656 L 34.34,-3.7653 L 34.2222,-3.83594
 L 34.1118,-3.91777 L 34.01,-4.01004 L 33.9178,-4.11185 L 33.8359,-4.2222 L 33.7653,-4.34004 L 33.7066,-4.46423
 L 33.6603,-4.5936 L 33.6269,-4.72687 L 33.6067,-4.86276 L 33.6,-5 L 33.6067,-5.13722 L 33.6269,-5.27312
 L 33.6603,-5.40639 L 33.7066,-5.53575 L 33.7653,-5.65994 L 33.8359,-5.77779 L 33.9178,-5.88814 L 34.01,-5.98994
 L 34.1118,-6.08221 L 34.2222,-6.16405 L 34.34,-6.23468 L 34.4642,-6.29343 L 34.5936,-6.33971 L 34.7269,-6.37309
 L 34.8628,-6.39325 L 35,-6.39999 L 35.1372,-6.39325 L 35.2731,-6.37309 L 35.4064,-6.33971 L 35.5358,-6.29343
 L 35.6599,-6.23468 L 35.7778,-6.16405 L 35.8881,-6.08221 L 35.9899,-5.98994 L 36.0822,-5.88814 L 36.164,-5.77779
 L 36.2347,-5.65994 L 36.2934,-5.53575 L 36.3397,-5.40639 L 36.3731,-5.27312 L 36.3932,-5.13722 L 36.4,-5
 L 36.3932,-4.86276 L 36.3731,-4.72687 L 36.3397,-4.5936 L 36.2934,-4.46423 L 36.2347,-4.34004 L 36.164,-4.2222
 L 36.0822,-4.11185 L 35.9899,-4.01004 L 35.8881,-3.91777 L 35.7778,-3.83594 L 35.6599,-3.7653 L 35.5358,-3.70656
 L 35.4064,-3.66028 L 35.2731,-3.62689 L 35.1372,-3.60674 L 35,-3.59999 z
M 74.8628,-3.60674 L 74.7269,-3.62689 L 74.5936,-3.66028 L 74.4642,-3.70656 L 74.34,-3.7653 L 74.2222,-3.83594
 L 74.1118,-3.91777 L 74.01,-4.01004 L 73.9178,-4.11185 L 73.8359,-4.2222 L 73.7653,-4.34004 L 73.7066,-4.46423
 L 73.6603,-4.5936 L 73.6269,-4.72687 L 73.6067,-4.86276 L 73.6,-5 L 73.6067,-5.13722 L 73.6269,-5.27312
 L 73.6603,-5.40639 L 73.7066,-5.53575 L 73.7653,-5.65994 L 73.8359,-5.77779 L 73.9178,-5.88814 L 74.01,-5.98994
 L 74.1118,-6.08221 L 74.2222,-6.16405 L 74.34,-6.23468 L 74.4642,-6.29343 L 74.5936,-6.33971 L 74.7269,-6.37309
 L 74.8628,-6.39325 L 75,-6.39999 L 75.1372,-6.39325 L 75.2731,-6.37309 L 75.4064,-6.33971 L 75.5358,-6.29343
 L 75.6599,-6.23468 L 75.7778,-6.16405 L 75.8881,-6.08221 L 75.9899,-5.98994 L 76.0822,-5.88814 L 76.164,-5.77779
 L 76.2347,-5.65994 L 76.2934,-5.53575 L 76.3397,-5.40639 L 76.3731,-5.27312 L 76.3932,-5.13722 L 76.4,-5
 L 76.3932,-4.86276 L 76.3731,-4.72687 L 76.3397,-4.5936 L 76.2934,-4.46423 L 76.2347,-4.34004 L 76.164,-4.2222
 L 76.0822,-4.11185 L 75.9899,-4.01004 L 75.8881,-3.91777 L 75.7778,-3.83594 L 75.6599,-3.7653 L 75.5358,-3.70656
 L 75.4064,-3.66028 L 75.2731,-3.62689 L 75.1372,-3.60674 L 75,-3.59999 z
M 64.8628,-3.60674 L 64.7269,-3.62689 L 64.5936,-3.66028 L 64.4642,-3.70656 L 64.34,-3.7653 L 64.2222,-3.83594
 L 64.1118,-3.91777 L 64.01,-4.01004 L 63.9178,-4.11185 L 63.8359,-4.2222 L 63.7653,-4.34004 L 63.7066,-4.46423
 L 63.6603,-4.5936 L 63.6269,-4.72687 L 63.6067,-4.86276 L 63.6,-5 L 63.6067,-5.13722 L 63.6269,-5.27312
 L 63.6603,-5.40639 L 63.7066,-5.53575 L 63.7653,-5.65994 L 63.8359,-5.77779 L 63.9178,-5.88814 L 64.01,-5.98994
 L 64.1118,-6.08221 L 64.2222,-6.16405 L 64.34,-6.23468 L 64.4642,-6.29343 L 64.5936,-6.33971 L 64.7269,-6.37309
 L 64.8628,-6.39325 L 65,-6.39999 L 65.1372,-6.39325 L 65.2731,-6.37309 L 65.4064,-6.33971 L 65.5358,-6.29343
 L 65.6599,-6.23468 L 65.7778,-6.16405 L 65.8881,-6.08221 L 65.9899,-5.98994 L 66.0822,-5.88814 L 66.164,-5.77779
 L 66.2347,-5.65994 L 66.2934,-5.53575 L 66.3397,-5.40639 L 66.3731,-5.27312 L 66.3932,-5.13722 L 66.4,-5
 L 66.3932,-4.86276 L 66.3731,-4.72687 L 66.3397,-4.5936 L 66.2934,-4.46423 L 66.2347,-4.34004 L 66.164,-4.2222
 L 66.0822,-4.11185 L 65.9899,-4.01004 L 65.8881,-3.91777 L 65.7778,-3.83594 L 65.6599,-3.7653 L 65.5358,-3.70656
 L 65.4064,-3.66028 L 65.2731,-3.62689 L 65.1372,-3.60674 L 65,-3.59999 z
M 4.86276,-3.60674 L 4.72687,-3.62689 L 4.5936,-3.66028 L 4.46423,-3.70656 L 4.34004,-3.7653 L 4.2222,-3.83594
 L 4.11185,-3.91777 L 4.01004,-4.01004 L 3.91777,-4.11185 L 3.83594,-4.2222 L 3.7653,-4.34004 L 3.70656,-4.46423
 L 3.66028,-4.5936 L 3.62689,-4.72687 L 3.60674,-4.86276 L 3.59999,-5 L 3.60674,-5.13722 L 3.62689,-5.27312
 L 3.66028,-5.40639 L 3.70656,-5.53575 L 3.7653,-5.65994 L 3.83594,-5.77779 L 3.91777,-5.88814 L 4.01004,-5.98994
 L 4.11185,-6.08221 L 4.2222,-6.16405 L 4.34004,-6.23468 L 4.46423,-6.29343 L 4.5936,-6.33971 L 4.72687,-6.37309
 L 4.86276,-6.39325 L 5,-6.39999 L 5.13722,-6.39325 L 5.27312,-6.37309 L 5.40639,-6.33971 L 5.53575,-6.29343
 L 5.65994,-6.23468 L 5.77779,-6.16405 L 5.88814,-6.08221 L 5.98994,-5.98994 L 6.08221,-5.88814 L 6.16405,-5.77779
 L 6.23468,-5.65994 L 6.29343,-5.53575 L 6.33971,-5.40639 L 6.37309,-5.27312 L 6.39325,-5.13722 L 6.39999,-5
 L 6.39325,-4.86276 L 6.37309,-4.72687 L 6.33971,-4.5936 L 6.29343,-4.46423 L 6.23468,-4.34004 L 6.16405,-4.2222
 L 6.08221,-4.11185 L 5.98994,-4.01004 L 5.88814,-3.91777 L 5.77779,-3.83594 L 5.65994,-3.7653 L 5.53575,-3.70656
 L 5.40639,-3.66028 L 5.27312,-3.62689 L 5.13722,-3.60674 L 5,-3.59999 z
M 94.8628,-3.60674 L 94.7269,-3.62689 L 94.5936,-3.66028 L 94.4642,-3.70656 L 94.34,-3.7653 L 94.2222,-3.83594
 L 94.1118,-3.91777 L 94.01,-4.01004 L 93.9178,-4.11185 L 93.8359,-4.2222 L 93.7653,-4.34004 L 93.7066,-4.46423
 L 93.6603,-4.5936 L 93.6269,-4.72687 L 93.6067,-4.86276 L 93.6,-5 L 93.6067,-5.13722 L 93.6269,-5.27312
 L 93.6603,-5.40639 L 93.7066,-5.53575 L 93.7653,-5.65994 L 93.8359,-5.77779 L 93.9178,-5.88814 L 94.01,-5.98994
 L 94.1118,-6.08221 L 94.2222,-6.16405 L 94.34,-6.23468 L 94.4642,-6.29343 L 94.5936,-6.33971 L 94.7269,-6.37309
 L 94.8628,-6.39325 L 95,-6.39999 L 95.1372,-6.39325 L 95.2731,-6.37309 L 95.4064,-6.33971 L 95.5358,-6.29343
 L 95.6599,-6.23468 L 95.7778,-6.16405 L 95.8881,-6.08221 L 95.9899,-5.98994 L 96.0822,-5.88814 L 96.164,-5.77779
 L 96.2347,-5.65994 L 96.2934,-5.53575 L 96.3397,-5.40639 L 96.3731,-5.27312 L 96.3932,-5.13722 L 96.4,-5
 L 96.3932,-4.86276 L 96.3731,-4.72687 L 96.3397,-4.5936 L 96.2934,-4.46423 L 96.2347,-4.34004 L 96.164,-4.2222
 L 96.0822,-4.11185 L 95.9899,-4.01004 L 95.8881,-3.91777 L 95.7778,-3.83594 L 95.6599,-3.7653 L 95.5358,-3.70656
 L 95.4064,-3.66028 L 95.2731,-3.62689 L 95.1372,-3.60674 L 95,-3.59999 z
M 84.8628,-3.60674 L 84.7269,-3.62689 L 84.5936,-3.66028 L 84.4642,-3.70656 L 84.34,-3.7653 L 84.2222,-3.83594
 L 84.1118,-3.91777 L 84.01,-4.01004 L 83.9178,-4.11185 L 83.8359,-4.2222 L 83.7653,-4.34004 L 83.7066,-4.46423
 L 83.6603,-4.5936 L 83.6269,-4.72687 L 83.6067,-4.86276 L 83.6,-5 L 83.6067,-5.13722 L 83.6269,-5.27312
 L 83.6603,-5.40639 L 83.7066,-5.53575 L 83.7653,-5.65994 L 83.8359,-5.77779 L 83.9178,-5.88814 L 84.01,-5.98994
 L 84.1118,-6.08221 L 84.2222,-6.16405 L 84.34,-6.23468 L 84.4642,-6.29343 L 84.5936,-6.33971 L 84.7269,-6.37309
 L 84.8628,-6.39325 L 85,-6.39999 L 85.1372,-6.39325 L 85.2731,-6.37309 L 85.4064,-6.33971 L 85.5358,-6.29343
 L 85.6599,-6.23468 L 85.7778,-6.16405 L 85.8881,-6.08221 L 85.9899,-5.98994 L 86.0822,-5.88814 L 86.164,-5.77779
 L 86.2347,-5.65994 L 86.2934,-5.53575 L 86.3397,-5.40639 L 86.3731,-5.27312 L 86.3932,-5.13722 L 86.4,-5
 L 86.3932,-4.86276 L 86.3731,-4.72687 L 86.3397,-4.5936 L 86.2934,-4.46423 L 86.2347,-4.34004 L 86.164,-4.2222
 L 86.0822,-4.11185 L 85.9899,-4.01004 L 85.8881,-3.91777 L 85.7778,-3.83594 L 85.6599,-3.7653 L 85.5358,-3.70656
 L 85.4064,-3.66028 L 85.2731,-3.62689 L 85.1372,-3.60674 L 85,-3.59999 z
M 14.8628,-3.60674 L 14.7269,-3.62689 L 14.5936,-3.66028 L 14.4642,-3.70656 L 14.34,-3.7653 L 14.2222,-3.83594
 L 14.1118,-3.91777 L 14.01,-4.01004 L 13.9178,-4.11185 L 13.8359,-4.2222 L 13.7653,-4.34004 L 13.7066,-4.46423
 L 13.6603,-4.5936 L 13.6269,-4.72687 L 13.6067,-4.86276 L 13.6,-5 L 13.6067,-5.13722 L 13.6269,-5.27312
 L 13.6603,-5.40639 L 13.7066,-5.53575 L 13.7653,-5.65994 L 13.8359,-5.77779 L 13.9178,-5.88814 L 14.01,-5.98994
 L 14.1118,-6.08221 L 14.2222,-6.16405 L 14.34,-6.23468 L 14.4642,-6.29343 L 14.5936,-6.33971 L 14.7269,-6.37309
 L 14.8628,-6.39325 L 15,-6.39999 L 15.1372,-6.39325 L 15.2731,-6.37309 L 15.4064,-6.33971 L 15.5358,-6.29343
 L 15.6599,-6.23468 L 15.7778,-6.16405 L 15.8881,-6.08221 L 15.9899,-5.98994 L 16.0822,-5.88814 L 16.164,-5.77779
 L 16.2347,-5.65994 L 16.2934,-5.53575 L 16.3397,-5.40639 L 16.3731,-5.27312 L 16.3932,-5.13722 L 16.4,-5
 L 16.3932,-4.86276 L 16.3731,-4.72687 L 16.3397,-4.5936 L 16.2934,-4.46423 L 16.2347,-4.34004 L 16.164,-4.2222
 L 16.0822,-4.11185 L 15.9899,-4.01004 L 15.8881,-3.91777 L 15.7778,-3.83594 L 15.6599,-3.7653 L 15.5358,-3.70656
 L 15.4064,-3.66028 L 15.2731,-3.62689 L 15.1372,-3.60674 L 15,-3.59999 z
" stroke="black" fill="lightgray" stroke-width="0.5"/>
</svg>
